<?xml version="1.0" encoding="UTF-8"?>
<svg version="1.1" xmlns="http://www.w3.org/2000/svg" width="4210" height="876">
<path d="M0 0 C1.09441406 0.94166016 1.09441406 0.94166016 2.2109375 1.90234375 C3.12617188 2.68480469 4.04140625 3.46726562 4.984375 4.2734375 C10.18602368 8.8267014 10.18602368 8.8267014 12.2109375 10.90234375 C12.2109375 11.56234375 12.2109375 12.22234375 12.2109375 12.90234375 C12.8709375 12.90234375 13.5309375 12.90234375 14.2109375 12.90234375 C15.65147771 14.64175122 17.01278215 16.44705569 18.3359375 18.27734375 C19.13775845 19.37744407 19.94117526 20.4763828 20.74609375 21.57421875 C21.15359863 22.13044922 21.56110352 22.68667969 21.98095703 23.25976562 C24.4654363 26.5776649 27.13046514 29.75276886 29.77734375 32.94140625 C31.2109375 34.90234375 31.2109375 34.90234375 31.2109375 36.90234375 C31.8709375 36.90234375 32.5309375 36.90234375 33.2109375 36.90234375 C34.6349244 38.61753452 35.9772591 40.40113495 37.2734375 42.21484375 C37.98628906 43.20097656 38.69914062 44.18710938 39.43359375 45.203125 C41.2109375 47.90234375 41.2109375 47.90234375 42.2109375 50.90234375 C42.8709375 50.90234375 43.5309375 50.90234375 44.2109375 50.90234375 C45.74947453 52.95768666 47.18112946 55.00840469 48.5859375 57.15234375 C51.18536516 61.09480904 53.82997646 64.58996205 57.2109375 67.90234375 C58.38999705 69.52453978 59.53543863 71.17163066 60.6484375 72.83984375 C62.54416673 75.60311008 64.27382741 77.96523366 66.6484375 80.33984375 C69.01108332 82.70248957 70.78106227 84.99931994 72.7109375 87.71484375 C76.16383274 92.55541198 79.81583245 97.18028329 83.5859375 101.77734375 C87.78248868 106.90523962 91.95539754 112.04658293 96.0234375 117.27734375 C96.83425781 118.31632813 97.64507813 119.3553125 98.48046875 120.42578125 C100.2109375 122.90234375 100.2109375 122.90234375 100.2109375 124.90234375 C100.8709375 124.90234375 101.5309375 124.90234375 102.2109375 124.90234375 C103.6349244 126.61753452 104.9772591 128.40113495 106.2734375 130.21484375 C106.98628906 131.20097656 107.69914062 132.18710938 108.43359375 133.203125 C110.2109375 135.90234375 110.2109375 135.90234375 111.2109375 138.90234375 C111.8709375 138.90234375 112.5309375 138.90234375 113.2109375 138.90234375 C114.6349244 140.61753452 115.9772591 142.40113495 117.2734375 144.21484375 C117.98628906 145.20097656 118.69914062 146.18710938 119.43359375 147.203125 C121.2109375 149.90234375 121.2109375 149.90234375 122.2109375 152.90234375 C122.8709375 152.90234375 123.5309375 152.90234375 124.2109375 152.90234375 C125.74947453 154.95768666 127.18112946 157.00840469 128.5859375 159.15234375 C131.18532727 163.09475157 133.82381763 166.5957099 137.2109375 169.90234375 C138.63503947 171.73488797 140.02879239 173.59124908 141.3984375 175.46484375 C144.38459241 179.51054212 147.44259403 183.46327416 150.6484375 187.33984375 C154.30723029 191.76590504 157.83960135 196.27617097 161.32641602 200.83764648 C164.5486619 205.05048783 167.80703602 209.23345472 171.0859375 213.40234375 C171.5382373 213.97766846 171.99053711 214.55299316 172.45654297 215.14575195 C174.45433774 217.68342077 176.46210759 220.20340958 178.53125 222.68359375 C180.2109375 224.90234375 180.2109375 224.90234375 180.2109375 226.90234375 C180.8709375 226.90234375 181.5309375 226.90234375 182.2109375 226.90234375 C183.6349244 228.61753452 184.9772591 230.40113495 186.2734375 232.21484375 C186.98628906 233.20097656 187.69914062 234.18710937 188.43359375 235.203125 C190.2109375 237.90234375 190.2109375 237.90234375 191.2109375 240.90234375 C191.8709375 240.90234375 192.5309375 240.90234375 193.2109375 240.90234375 C194.74947453 242.95768666 196.18112946 245.00840469 197.5859375 247.15234375 C200.18536516 251.09480904 202.82997646 254.58996205 206.2109375 257.90234375 C207.38999705 259.52453978 208.53543863 261.17163066 209.6484375 262.83984375 C211.54416673 265.60311008 213.27382741 267.96523366 215.6484375 270.33984375 C218.01108332 272.70248957 219.78106227 274.99931994 221.7109375 277.71484375 C225.16383274 282.55541198 228.81583245 287.18028329 232.5859375 291.77734375 C236.78248868 296.90523962 240.95539754 302.04658293 245.0234375 307.27734375 C245.83425781 308.31632812 246.64507813 309.3553125 247.48046875 310.42578125 C249.2109375 312.90234375 249.2109375 312.90234375 249.2109375 314.90234375 C249.8709375 314.90234375 250.5309375 314.90234375 251.2109375 314.90234375 C252.6349244 316.61753452 253.9772591 318.40113495 255.2734375 320.21484375 C255.98628906 321.20097656 256.69914062 322.18710937 257.43359375 323.203125 C259.2109375 325.90234375 259.2109375 325.90234375 260.2109375 328.90234375 C260.8709375 328.90234375 261.5309375 328.90234375 262.2109375 328.90234375 C263.71875 330.65234375 263.71875 330.65234375 265.3359375 332.90234375 C265.87476562 333.64484375 266.41359375 334.38734375 266.96875 335.15234375 C267.37867187 335.72984375 267.78859375 336.30734375 268.2109375 336.90234375 C272.28816293 332.27414191 276.14970183 327.49983125 279.9609375 322.65234375 C280.44473877 322.03794434 280.92854004 321.42354492 281.42700195 320.79052734 C283.44883224 318.20930157 285.39129468 315.63180798 287.2109375 312.90234375 C287.8709375 312.90234375 288.5309375 312.90234375 289.2109375 312.90234375 C289.46746094 312.34675781 289.72398437 311.79117187 289.98828125 311.21875 C294.18992981 303.25843819 300.45537833 296.25849356 306.23046875 289.41015625 C308.24894864 286.97138849 308.24894864 286.97138849 309.72265625 284.33203125 C311.29387679 281.76694154 313.07823663 280.01053082 315.2109375 277.90234375 C317.08500468 275.29288312 318.85200042 272.628074 320.625 269.94921875 C321.14835937 269.27375 321.67171875 268.59828125 322.2109375 267.90234375 C322.8709375 267.90234375 323.5309375 267.90234375 324.2109375 267.90234375 C324.46875 267.350625 324.7265625 266.79890625 324.9921875 266.23046875 C326.39056875 263.559202 327.99857055 261.13382466 329.7109375 258.65234375 C330.319375 257.7603125 330.9278125 256.86828125 331.5546875 255.94921875 C332.10125 255.27375 332.6478125 254.59828125 333.2109375 253.90234375 C333.8709375 253.90234375 334.5309375 253.90234375 335.2109375 253.90234375 C335.46875 253.350625 335.7265625 252.79890625 335.9921875 252.23046875 C337.39056875 249.559202 338.99857055 247.13382466 340.7109375 244.65234375 C341.319375 243.7603125 341.9278125 242.86828125 342.5546875 241.94921875 C343.10125 241.27375 343.6478125 240.59828125 344.2109375 239.90234375 C344.8709375 239.90234375 345.5309375 239.90234375 346.2109375 239.90234375 C346.57832031 239.08636719 346.57832031 239.08636719 346.953125 238.25390625 C348.49680813 235.36788996 350.35985077 232.88687989 352.3359375 230.27734375 C352.73699707 229.74737793 353.13805664 229.21741211 353.55126953 228.67138672 C356.64664132 224.59917176 359.82197362 220.59587724 363.03125 216.61328125 C365.69070773 213.30564027 368.33026185 209.98289985 370.9609375 206.65234375 C371.42097168 206.07371582 371.88100586 205.49508789 372.35498047 204.89892578 C374.4872985 202.19488241 376.48062727 199.49684246 378.390625 196.625 C380.2109375 193.90234375 380.2109375 193.90234375 382.5859375 191.58984375 C385.46126071 188.64606047 387.50874247 185.56208483 389.68359375 182.0859375 C391.2109375 179.90234375 391.2109375 179.90234375 393.16796875 177.953125 C396.15596686 174.95370051 398.29550458 171.46889306 400.625 167.94921875 C401.14835937 167.27375 401.67171875 166.59828125 402.2109375 165.90234375 C402.8709375 165.90234375 403.5309375 165.90234375 404.2109375 165.90234375 C404.46875 165.350625 404.7265625 164.79890625 404.9921875 164.23046875 C406.39056875 161.559202 407.99857055 159.13382466 409.7109375 156.65234375 C410.319375 155.7603125 410.9278125 154.86828125 411.5546875 153.94921875 C412.10125 153.27375 412.6478125 152.59828125 413.2109375 151.90234375 C413.8709375 151.90234375 414.5309375 151.90234375 415.2109375 151.90234375 C415.4584375 151.35449219 415.7059375 150.80664062 415.9609375 150.2421875 C418.39431492 145.68720915 421.76459743 141.72405359 424.89501953 137.63134766 C426.26005321 135.8378099 427.60935209 134.03316816 428.95703125 132.2265625 C429.85385693 131.03492308 430.75098491 129.8435111 431.6484375 128.65234375 C432.07318359 128.07943604 432.49792969 127.50652832 432.93554688 126.91625977 C433.97993673 125.54096368 435.09005406 124.21604456 436.2109375 122.90234375 C436.8709375 122.90234375 437.5309375 122.90234375 438.2109375 122.90234375 C438.46746094 122.34675781 438.72398437 121.79117188 438.98828125 121.21875 C443.18992981 113.25843819 449.45537833 106.25849356 455.23046875 99.41015625 C457.24894864 96.97138849 457.24894864 96.97138849 458.72265625 94.33203125 C460.29387679 91.76694154 462.07823663 90.01053082 464.2109375 87.90234375 C466.08500468 85.29288312 467.85200042 82.628074 469.625 79.94921875 C470.14835937 79.27375 470.67171875 78.59828125 471.2109375 77.90234375 C471.8709375 77.90234375 472.5309375 77.90234375 473.2109375 77.90234375 C473.46875 77.350625 473.7265625 76.79890625 473.9921875 76.23046875 C475.39056875 73.559202 476.99857055 71.13382466 478.7109375 68.65234375 C479.319375 67.7603125 479.9278125 66.86828125 480.5546875 65.94921875 C481.10125 65.27375 481.6478125 64.59828125 482.2109375 63.90234375 C482.8709375 63.90234375 483.5309375 63.90234375 484.2109375 63.90234375 C484.46875 63.350625 484.7265625 62.79890625 484.9921875 62.23046875 C486.39056875 59.559202 487.99857055 57.13382466 489.7109375 54.65234375 C490.319375 53.7603125 490.9278125 52.86828125 491.5546875 51.94921875 C492.10125 51.27375 492.6478125 50.59828125 493.2109375 49.90234375 C493.8709375 49.90234375 494.5309375 49.90234375 495.2109375 49.90234375 C495.45585937 49.35835938 495.70078125 48.814375 495.953125 48.25390625 C497.49680813 45.36788996 499.35985077 42.88687989 501.3359375 40.27734375 C501.73482178 39.75027832 502.13370605 39.22321289 502.54467773 38.68017578 C506.34420669 33.68186496 510.26084413 28.78187086 514.2109375 23.90234375 C515.69191486 22.0704728 517.17111711 20.23716516 518.6484375 18.40234375 C519.30714844 17.58765625 519.96585938 16.77296875 520.64453125 15.93359375 C522.24733034 13.98960339 522.24733034 13.98960339 523.2109375 11.90234375 C523.8709375 11.90234375 524.5309375 11.90234375 525.2109375 11.90234375 C525.2109375 11.24234375 525.2109375 10.58234375 525.2109375 9.90234375 C525.8709375 9.90234375 526.5309375 9.90234375 527.2109375 9.90234375 C527.2109375 9.24234375 527.2109375 8.58234375 527.2109375 7.90234375 C527.8709375 7.90234375 528.5309375 7.90234375 529.2109375 7.90234375 C529.2109375 7.24234375 529.2109375 6.58234375 529.2109375 5.90234375 C549.69211825 -13.08575568 575.84348848 -21.96307627 603.578125 -21.3515625 C630.78462552 -20.21366977 655.67989854 -7.8766791 674.2109375 11.90234375 C696.17037861 37.04779939 699.53528019 66.43705719 699.46787261 98.57667311 C699.46275694 102.08235696 699.46933562 105.58802338 699.47435927 109.0937047 C699.48155473 115.2260508 699.48138077 121.35836162 699.47626495 127.4907093 C699.46867815 136.60995726 699.47257879 145.72917563 699.47868157 154.84842341 C699.48919789 171.13845237 699.48830631 187.42846562 699.48252374 203.71849607 C699.47748824 217.97436548 699.47618128 232.23022913 699.47856903 246.48609924 C699.47879819 247.90575861 699.47879819 247.90575861 699.47903197 249.35409797 C699.47965467 253.19621855 699.48029147 257.03833912 699.4809515 260.8804597 C699.48706645 296.90619836 699.4815274 332.93192702 699.4707577 368.95766414 C699.46126684 400.94883223 699.46211611 432.93998439 699.47167969 464.93115234 C699.48239409 500.8919364 699.48663275 536.85271163 699.48045516 572.81349707 C699.47981375 576.64852746 699.47918806 580.48355786 699.47856903 584.31858826 C699.47841088 585.26283749 699.47825272 586.20708671 699.47808977 587.17994956 C699.47581695 601.42519035 699.47847142 615.67042476 699.48352814 629.91566467 C699.48925052 646.11672593 699.48780872 662.31776904 699.47696665 678.51882803 C699.47110198 687.58064692 699.47069931 696.64242649 699.478259 705.70424434 C699.48275522 711.76321527 699.47993197 717.82215479 699.47124946 723.88112107 C699.46650884 727.32918174 699.46482969 730.77716453 699.47206143 734.22522265 C699.52842589 768.61542351 693.85492937 798.73017822 669.2109375 824.33984375 C657.02793642 835.90145529 641.37199246 844.40798697 625.2109375 848.90234375 C624.16945557 849.24096436 623.12797363 849.57958496 622.05493164 849.9284668 C617.97275065 850.96268845 614.17609474 851.22541389 609.99609375 851.23828125 C609.2226915 851.24493805 608.44928925 851.25159485 607.65245056 851.25845337 C606.01954503 851.26853132 604.38659871 851.2732719 602.75366211 851.27294922 C600.3109521 851.27727728 597.87012016 851.31351988 595.42773438 851.3515625 C580.66487867 851.45761871 566.42764671 848.92894865 553.2109375 841.90234375 C552.8809375 841.24234375 552.5509375 840.58234375 552.2109375 839.90234375 C551.30988281 839.60585938 550.40882813 839.309375 549.48046875 839.00390625 C537.67236216 835.02554776 527.23723305 823.65787289 519.83984375 814.00390625 C518.23550454 811.84311301 518.23550454 811.84311301 516.2109375 809.90234375 C510.76961369 802.37769193 507.23068539 794.64842838 504.2109375 785.90234375 C503.92476562 785.12117187 503.63859375 784.34 503.34375 783.53515625 C499.09078371 771.56546762 497.77397697 760.04766032 497.85017395 747.41923523 C497.84886315 745.78696744 497.84623169 744.15470027 497.84240645 742.52243644 C497.83574347 738.07090715 497.84763596 733.6195971 497.86274064 729.16809571 C497.87575763 724.3550554 497.87130755 719.54202636 497.86903381 714.72897339 C497.86746465 706.40123784 497.87683649 698.07357308 497.89374733 689.74585533 C497.91818123 677.705547 497.92594709 665.66527272 497.9297113 653.62494228 C497.93626891 634.08791415 497.9562113 614.5509237 497.98461914 595.01391602 C498.01217761 576.04126168 498.03340244 557.06861759 498.04614258 538.09594727 C498.04693075 536.92547341 498.04771892 535.75499955 498.04853097 534.54905679 C498.05244623 528.6768351 498.05623732 522.80461334 498.05996668 516.93239152 C498.09104106 468.2556829 498.14385802 419.57901517 498.2109375 370.90234375 C497.87886795 371.37887894 497.5467984 371.85541412 497.20466614 372.34638977 C496.76305649 372.97369492 496.32144684 373.60100006 495.86645508 374.24731445 C495.43126053 374.86822464 494.99606598 375.48913483 494.54768372 376.12886047 C493.2109375 377.90234375 493.2109375 377.90234375 490.72265625 380.3828125 C487.1684209 383.94810301 484.51515118 388.01571947 481.69726562 392.16992188 C480.58111702 393.78024314 479.40096833 395.34582555 478.2109375 396.90234375 C477.5509375 396.90234375 476.8909375 396.90234375 476.2109375 396.90234375 C475.97503906 397.43859375 475.73914062 397.97484375 475.49609375 398.52734375 C473.85169109 401.56623985 471.7792602 404.19732551 469.6484375 406.90234375 C468.74405337 408.06192456 467.84042388 409.22209428 466.9375 410.3828125 C466.48149414 410.96853027 466.02548828 411.55424805 465.55566406 412.15771484 C463.50691737 414.81572934 461.51886276 417.51656251 459.5234375 420.21484375 C456.54074566 424.20914785 453.43862927 427.98266517 450.11328125 431.69140625 C447.58915931 434.62498535 445.20682555 437.656815 442.8359375 440.71484375 C442.39451416 441.27872803 441.95309082 441.8426123 441.49829102 442.42358398 C439.5836559 444.913396 438.21231365 446.89821529 437.2109375 449.90234375 C435.57232331 451.59659848 433.90189568 453.26032792 432.2109375 454.90234375 C426.49056425 461.42930025 421.36426917 468.31353356 416.4855957 475.48217773 C415.44149895 476.98956737 414.33171095 478.45105866 413.2109375 479.90234375 C412.5509375 479.90234375 411.8909375 479.90234375 411.2109375 479.90234375 C410.93314453 480.48661133 410.65535156 481.07087891 410.36914062 481.67285156 C408.50934687 485.25287614 406.08860708 488.4022476 403.7109375 491.65234375 C403.21207031 492.34972656 402.71320312 493.04710937 402.19921875 493.765625 C401.71839844 494.42433594 401.23757813 495.08304688 400.7421875 495.76171875 C400.30455078 496.36467773 399.86691406 496.96763672 399.41601562 497.58886719 C399.01833984 498.02231445 398.62066406 498.45576172 398.2109375 498.90234375 C397.5509375 498.90234375 396.8909375 498.90234375 396.2109375 498.90234375 C395.95699219 499.4540625 395.70304687 500.00578125 395.44140625 500.57421875 C391.7336523 507.58952463 386.42877508 513.77698524 381.1484375 519.65625 C378.60951762 522.59955429 376.21669462 525.64298104 373.8359375 528.71484375 C373.39459473 529.27864746 372.95325195 529.84245117 372.49853516 530.42333984 C370.58376991 532.91320861 369.21235264 534.89809834 368.2109375 537.90234375 C366.55775332 539.58238471 364.88796656 541.24610431 363.2109375 542.90234375 C361.02598672 545.45849668 358.93393238 548.08712973 356.8359375 550.71484375 C340.08031137 571.51111736 340.08031137 571.51111736 334.2109375 573.90234375 C334.2109375 574.56234375 334.2109375 575.22234375 334.2109375 575.90234375 C332.11495555 577.43959852 330.03573662 578.84042754 327.8359375 580.21484375 C327.19906006 580.61783691 326.56218262 581.02083008 325.90600586 581.43603516 C320.83465924 584.60347413 315.66716885 587.44748761 310.2109375 589.90234375 C308.67953125 590.62744141 308.67953125 590.62744141 307.1171875 591.3671875 C284.69935795 600.86123283 260.13713266 599.62824124 237.22192383 593.36132812 C235.0672564 592.79108562 235.0672564 592.79108562 232.2109375 592.90234375 C232.2109375 592.24234375 232.2109375 591.58234375 232.2109375 590.90234375 C231.36789062 590.80953125 230.52484375 590.71671875 229.65625 590.62109375 C225.74537109 589.80521878 222.55644322 588.30262196 219.0859375 586.40234375 C218.43141602 586.0463208 217.77689453 585.69029785 217.10253906 585.32348633 C200.86791207 576.26895263 189.18336826 563.65385693 178.25390625 548.91796875 C175.83929822 545.67800239 173.28171113 542.61325536 170.62817383 539.56787109 C168.44205628 536.99875931 166.46237765 534.30559099 164.4609375 531.58984375 C161.52667164 527.58111367 161.52667164 527.58111367 158.2109375 523.90234375 C157.3837562 522.83017844 156.57372761 521.74472788 155.7734375 520.65234375 C152.8388295 516.70356975 149.81797133 512.82892091 146.7734375 508.96484375 C146.29076416 508.3522168 145.80809082 507.73958984 145.31079102 507.10839844 C144.36623762 505.90964694 143.42165842 504.71091578 142.47705078 503.51220703 C140.88023189 501.4818515 139.29413521 499.44333357 137.7109375 497.40234375 C134.66204267 493.4749538 131.5946609 489.56227856 128.5234375 485.65234375 C128.059375 485.06130859 127.5953125 484.47027344 127.1171875 483.86132812 C126.66988281 483.29220703 126.22257812 482.72308594 125.76171875 482.13671875 C125.33197754 481.58822266 124.90223633 481.03972656 124.45947266 480.47460938 C123.28850997 479.00002985 122.08474517 477.55166752 120.87890625 476.10546875 C119.2109375 473.90234375 119.2109375 473.90234375 119.2109375 471.90234375 C118.5509375 471.90234375 117.8909375 471.90234375 117.2109375 471.90234375 C115.89819336 470.48120117 115.89819336 470.48120117 114.42578125 468.5078125 C113.89533203 467.79947266 113.36488281 467.09113281 112.81835938 466.36132812 C112.26728516 465.61173828 111.71621094 464.86214844 111.1484375 464.08984375 C110.59349609 463.35185547 110.03855469 462.61386719 109.46679688 461.85351562 C105.34583257 456.30702895 105.34583257 456.30702895 104.2109375 452.90234375 C103.5509375 452.90234375 102.8909375 452.90234375 102.2109375 452.90234375 C100.65234375 450.98828125 100.65234375 450.98828125 98.7734375 448.27734375 C95.46979513 443.61727887 92.06097773 439.07492869 88.5234375 434.58984375 C88.07234619 434.0160498 87.62125488 433.44225586 87.15649414 432.85107422 C84.99242519 430.11079267 82.80176098 427.39864937 80.55859375 424.72265625 C78.74779554 422.54728802 77.01289607 420.36713365 75.3359375 418.08984375 C71.27507419 412.63012265 67.15284573 407.22262701 62.78515625 402.00390625 C60.29960217 399.0336059 57.9350554 395.98212374 55.5859375 392.90234375 C51.88616117 388.06023322 48.14494979 383.25248367 44.375 378.46484375 C43.87460205 377.82869141 43.3742041 377.19253906 42.85864258 376.53710938 C41.64310069 374.99190439 40.42707139 373.44708285 39.2109375 371.90234375 C39.20958097 372.71341223 39.20822444 373.52448072 39.20682681 374.36012703 C39.12612905 422.45968266 39.03515492 470.55920953 38.93088589 518.65872014 C38.91836743 524.43760038 38.90593459 530.21648079 38.89355469 535.99536133 C38.89108869 537.14580397 38.8886227 538.29624662 38.88608198 539.48155116 C38.84638777 558.095006 38.81362567 576.70846689 38.78343768 595.3219393 C38.75229375 614.42940954 38.71367179 633.53685419 38.66814744 652.64429563 C38.64030434 664.42900762 38.61825321 676.21370094 38.60367499 687.99843692 C38.59311073 696.08609995 38.5752649 704.17372678 38.55177046 712.2613625 C38.53844003 716.92336938 38.52824589 721.58532565 38.52672386 726.2473526 C38.52525624 730.52451793 38.51454325 734.80156163 38.49680309 739.07868951 C38.49199519 740.61729731 38.49043748 742.15591988 38.49265869 743.69453359 C38.52549929 770.93587616 31.83623359 796.54721322 14.2109375 817.90234375 C13.5509375 817.90234375 12.8909375 817.90234375 12.2109375 817.90234375 C11.94925781 818.49015625 11.68757813 819.07796875 11.41796875 819.68359375 C6.80049525 828.17137676 -2.50102634 833.57073637 -10.7890625 837.90234375 C-11.38219238 838.21252441 -11.97532227 838.52270508 -12.58642578 838.84228516 C-25.36477329 845.4849849 -37.00913782 850.98710841 -51.6875 851.140625 C-52.44012115 851.14869675 -53.19274231 851.15676849 -53.96817017 851.16508484 C-55.55997462 851.1788638 -57.15180784 851.18961339 -58.74365234 851.19750977 C-60.33944632 851.20893819 -61.93520491 851.22924201 -63.53076172 851.2590332 C-79.06609808 851.54816038 -93.82874167 849.32428647 -107.7890625 841.90234375 C-108.1190625 841.24234375 -108.4490625 840.58234375 -108.7890625 839.90234375 C-109.64113281 839.64195312 -110.49320313 839.3815625 -111.37109375 839.11328125 C-115.68985063 837.58320738 -118.85114138 835.28208771 -122.4765625 832.52734375 C-123.52396606 831.7374707 -123.52396606 831.7374707 -124.5925293 830.93164062 C-139.7222164 819.21564455 -150.55818505 803.94881104 -156.7890625 785.90234375 C-157.07523438 785.12117187 -157.36140625 784.34 -157.65625 783.53515625 C-161.40879519 772.97386928 -163.24007707 762.63328196 -163.15376186 751.43925285 C-163.15673341 750.24977201 -163.15970495 749.06029116 -163.16276655 747.83476543 C-163.16792872 744.55911253 -163.15975449 741.28381967 -163.14572732 738.00820332 C-163.13377787 734.43460131 -163.13940953 730.86101775 -163.1427241 727.28740323 C-163.1461142 721.03255402 -163.13834271 714.7777969 -163.12313652 708.52296638 C-163.10054828 699.22135361 -163.09523671 689.91978593 -163.093224 680.61814882 C-163.08902647 664.00174328 -163.06743976 647.3853944 -163.03824412 630.76901596 C-163.01269192 616.22386342 -162.992359 601.67871593 -162.97726631 587.13354874 C-162.9752197 585.1812958 -162.97317228 583.22904287 -162.97112407 581.27678994 C-162.96804507 578.33477038 -162.96497102 575.39275081 -162.96191161 572.45073122 C-162.93335414 545.10188093 -162.89880151 517.75304338 -162.85155392 490.40421867 C-162.84977388 489.37353671 -162.84799385 488.34285475 -162.84615988 487.28094 C-162.83166915 478.91150528 -162.81701289 470.54207085 -162.80234477 462.17263644 C-162.74527962 429.5372968 -162.70662119 396.90198199 -162.68286133 364.26660156 C-162.65611105 327.58282073 -162.61620075 290.89908942 -162.55646044 254.21534646 C-162.55012807 250.30157548 -162.54383667 246.38780444 -162.53756905 242.47403336 C-162.53601609 241.51039671 -162.53446313 240.54676007 -162.53286311 239.55392231 C-162.50970499 225.02455435 -162.49672334 210.49520011 -162.48887444 195.9658165 C-162.47991666 179.43467078 -162.45691898 162.90361179 -162.41543781 146.37251429 C-162.39264989 137.12933665 -162.38070989 127.88629858 -162.38468037 118.64309286 C-162.38622673 112.45802205 -162.37316152 106.27308993 -162.3485427 100.08806831 C-162.33494322 96.5711944 -162.32733527 93.05461485 -162.3375864 89.53772269 C-162.3942145 61.45085919 -158.60957393 39.26475853 -141.05078125 16.55859375 C-139.90243207 15.05116324 -138.84022341 13.47908511 -137.7890625 11.90234375 C-137.1290625 11.90234375 -136.4690625 11.90234375 -135.7890625 11.90234375 C-135.7890625 11.24234375 -135.7890625 10.58234375 -135.7890625 9.90234375 C-135.1290625 9.90234375 -134.4690625 9.90234375 -133.7890625 9.90234375 C-133.7890625 9.24234375 -133.7890625 8.58234375 -133.7890625 7.90234375 C-133.1290625 7.90234375 -132.4690625 7.90234375 -131.7890625 7.90234375 C-131.7890625 7.24234375 -131.7890625 6.58234375 -131.7890625 5.90234375 C-131.1290625 5.90234375 -130.4690625 5.90234375 -129.7890625 5.90234375 C-129.7890625 5.24234375 -129.7890625 4.58234375 -129.7890625 3.90234375 C-93.43717828 -26.79819712 -37.83993578 -31.01749383 0 0 Z " fill="#000000" transform="translate(2745.7890625,25.09765625)"/>
<path d="M0 0 C0.63566895 0.20367188 1.27133789 0.40734375 1.92626953 0.6171875 C17.07851568 5.60760961 37.10688631 16.00677907 45.3515625 30.3515625 C45.67253906 31.16753906 45.67253906 31.16753906 46 32 C46.66 32 47.32 32 48 32 C53.26224966 38.28430944 57.21333847 45.61251955 61.0625 52.8125 C61.61413818 53.83657959 62.16577637 54.86065918 62.73413086 55.91577148 C67.69953465 65.23647385 72.28243609 74.72906661 76.82495117 84.25976562 C80.9497174 92.90252949 85.25550542 101.43051781 89.74243164 109.89086914 C93.96574338 117.85936738 97.98797089 125.92388664 102 134 C102.89826923 135.80802683 103.79654427 137.61605077 104.69482422 139.42407227 C105.16862518 140.37774185 105.64242615 141.33141144 106.13058472 142.3139801 C108.15117712 146.3790791 110.17445717 150.44283728 112.19824219 154.50634766 C113.22704216 156.57398309 114.25440267 158.64233544 115.28027344 160.71142578 C120.71003921 171.65965626 126.22358183 182.53210538 132.1328125 193.23046875 C137.82992077 203.54775981 143.03277684 214.06126727 148.125 224.6875 C153.37240508 235.61077563 158.70469705 246.45977873 164.38842773 257.16357422 C167.99460053 263.95947002 171.45300475 270.82020017 174.86682129 277.71429443 C178.66452155 285.37453774 182.49041671 293.02084755 186.30810547 300.67114258 C187.34984317 302.75964975 188.3908629 304.84851521 189.43115234 306.93774414 C197.21522432 322.56844525 205.19177215 338.0775806 213.47016907 353.45207214 C217.85587858 361.60356305 221.87418138 369.90947014 225.84130859 378.27148438 C228.85812427 384.62688135 231.92007068 390.95571218 235.0625 397.25 C235.41304443 397.95552002 235.76358887 398.66104004 236.12475586 399.38793945 C238.07143587 403.27134313 240.06322478 407.12853087 242.09960938 410.96557617 C246.85520151 419.92855921 251.50515739 428.93427566 256.0234375 438.01953125 C256.54157516 439.06130524 257.05971283 440.10307922 257.59355164 441.17642212 C259.71992507 445.45657994 261.84342212 449.7381471 263.96289062 454.02172852 C269.50619727 465.21684981 275.11401584 476.34575647 281.15625 487.28125 C286.84692597 497.5810245 292.04074341 508.07789156 297.125 518.6875 C302.37240508 529.61077563 307.70469705 540.45977873 313.38842773 551.16357422 C316.99460053 557.95947002 320.45300475 564.82020017 323.86682129 571.71429443 C327.66452155 579.37453774 331.49041671 587.02084755 335.30810547 594.67114258 C336.34984317 596.75964975 337.3908629 598.84851521 338.43115234 600.93774414 C346.21504227 616.56807968 354.1913893 632.07685628 362.46961975 647.45097351 C366.80590211 655.5109446 370.77999282 663.7213417 374.70068359 671.99023438 C378.0828954 679.11339517 381.53831652 686.1959835 385.0625 693.25 C385.56120605 694.24821777 386.05991211 695.24643555 386.57373047 696.27490234 C389.35749988 701.81610208 392.21394611 707.31068499 395.14428711 712.77563477 C399.38968433 720.69337673 403.10506211 728.47199547 406 737 C406.52400391 738.51207031 406.52400391 738.51207031 407.05859375 740.0546875 C414.17821694 762.32935922 411.57491993 788.7331311 402.96484375 810.171875 C402 812 402 812 400 813 C399.855625 813.94875 399.71125 814.8975 399.5625 815.875 C398.93131867 819.38156292 398.44067343 819.66269627 396 822 C394.93457825 823.50428719 393.89524037 825.02721075 392.875 826.5625 C386.0986343 836.33637757 376.60611431 849.04898236 365 853 C365 853.66 365 854.32 365 855 C361.69180248 856.61314788 358.3777091 858.21381768 355.0625 859.8125 C354.13630859 860.26431641 353.21011719 860.71613281 352.25585938 861.18164062 C346.60490966 863.89806207 341.02833964 866.2652655 335 868 C334.35732178 868.20238281 333.71464355 868.40476562 333.05249023 868.61328125 C325.84946215 870.58239204 318.3805686 870.33660727 310.97167969 870.31567383 C308.63689334 870.31251609 306.3033803 870.33602647 303.96875 870.36132812 C295.51651092 870.39742718 288.04814491 869.87534579 280 867 C278.85789062 866.62359375 277.71578125 866.2471875 276.5390625 865.859375 C268.64863856 862.85551387 261.33701352 859.16718668 254 855 C253.21753906 854.55914063 252.43507813 854.11828125 251.62890625 853.6640625 C250.08052885 852.78550631 248.53904948 851.89479621 247 851 C247 850.34 247 849.68 247 849 C246.195625 848.731875 245.39125 848.46375 244.5625 848.1875 C243.2940625 847.5996875 243.2940625 847.5996875 242 847 C241.67 846.01 241.34 845.02 241 844 C239.67305929 843.32069847 238.33852276 842.65618522 237 842 C222.37841538 828.46874387 213.91494673 808.99626453 205.22363281 791.42651367 C202.79379863 786.53201532 200.2721068 781.69052907 197.72485352 776.85620117 C192.75921002 767.42881227 187.9943381 757.9400586 183.44848633 748.3034668 C178.54220481 737.94146352 173.38103875 727.70854927 168.21777344 717.47290039 C167.87934418 716.80023636 167.54091492 716.12757233 167.19223022 715.43452454 C166.55390035 714.16595434 165.91387367 712.89823604 165.2718811 711.6315155 C164.00166846 709.10564629 162.89598835 706.68796504 162 704 C161.34 703.67 160.68 703.34 160 703 C158.91243188 701.07792671 157.90676682 699.10936186 156.9375 697.125 C156.48286377 696.20037964 156.48286377 696.20037964 156.01904297 695.25708008 C153.88235579 690.88834676 151.81525944 686.48753248 149.75 682.0847168 C146.11757795 674.34453622 142.34236648 666.72433163 138.29858398 659.19067383 C135.84852787 654.62236768 133.48442183 650.02206791 131.1875 645.375 C128.44439369 639.82625457 125.61027189 634.33231877 122.72485352 628.85620117 C117.75921002 619.42881227 112.9943381 609.9400586 108.44848633 600.3034668 C103.54220481 589.94146352 98.38103875 579.70854927 93.21777344 569.47290039 C92.87934418 568.80023636 92.54091492 568.12757233 92.19223022 567.43452454 C91.55390035 566.16595434 90.91387367 564.89823604 90.2718811 563.6315155 C89.00166846 561.10564629 87.89598835 558.68796504 87 556 C86.34 555.67 85.68 555.34 85 555 C83.91243188 553.07792671 82.90676682 551.10936186 81.9375 549.125 C81.48286377 548.20037964 81.48286377 548.20037964 81.01904297 547.25708008 C78.88235579 542.88834676 76.81525944 538.48753248 74.75 534.0847168 C71.11757795 526.34453622 67.34236648 518.72433163 63.29858398 511.19067383 C60.84852787 506.62236768 58.48442183 502.02206791 56.1875 497.375 C53.44439369 491.82625457 50.61027189 486.33231877 47.72485352 480.85620117 C42.75921002 471.42881227 37.9943381 461.9400586 33.44848633 452.3034668 C28.54220481 441.94146352 23.38103875 431.70854927 18.21777344 421.47290039 C17.87934418 420.80023636 17.54091492 420.12757233 17.19223022 419.43452454 C16.55390035 418.16595434 15.91387367 416.89823604 15.2718811 415.6315155 C14.00166846 413.10564629 12.89598835 410.68796504 12 408 C11.34 407.67 10.68 407.34 10 407 C9.07911793 405.41185583 8.24015738 403.77605022 7.4375 402.125 C6.90640625 401.03832031 6.3753125 399.95164062 5.828125 398.83203125 C4.51151031 396.08617754 3.21427756 393.33154184 1.921875 390.57421875 C-2.09815679 382.00224937 -6.22299232 373.5339799 -10.70117188 365.19116211 C-13.15128784 360.62267249 -15.51531947 356.02214935 -17.8125 351.375 C-23.03196186 340.82623569 -28.53182845 330.42130489 -34 320 C-35.96292036 323.73237798 -37.91989264 327.4677967 -39.87158203 331.20605469 C-40.53534801 332.47544657 -41.20068854 333.74401648 -41.86767578 335.01171875 C-42.83007474 336.84157147 -43.7866377 338.67437574 -44.7421875 340.5078125 C-45.3182373 341.60754395 -45.89428711 342.70727539 -46.48779297 343.84033203 C-47.93009159 346.85393046 -48.99691831 349.81799416 -50 353 C-50.77475851 354.74640284 -51.58626298 356.47707048 -52.4375 358.1875 C-52.84871094 359.02667969 -53.25992187 359.86585938 -53.68359375 360.73046875 C-55 363 -55 363 -56.42747498 364.35452271 C-58.2807377 366.29376163 -59.28166905 368.1961954 -60.47680664 370.59716797 C-60.94482193 371.53019745 -61.41283722 372.46322693 -61.89503479 373.42453003 C-62.39502487 374.43685699 -62.89501495 375.44918396 -63.41015625 376.4921875 C-63.93709579 377.54793976 -64.46403534 378.60369202 -65.00694275 379.69143677 C-66.12681649 381.93791548 -67.2438076 384.18583312 -68.3581543 386.43505859 C-70.02641333 389.80216499 -71.70273645 393.16514447 -73.38085938 396.52734375 C-78.50070592 406.8054219 -83.55421354 417.10871312 -88.45703125 427.4921875 C-91.63148504 434.2115411 -94.9162316 440.80576885 -98.625 447.25 C-102.3781238 453.92273337 -105.81969818 460.65067047 -108.99902344 467.61352539 C-111.96987204 474.07351813 -115.28225687 480.33542319 -118.67602539 486.58227539 C-120.87289642 490.66756921 -122.60013501 494.56200009 -124 499 C-124.93963505 501.08080743 -125.91956349 503.14385647 -126.9375 505.1875 C-127.44152344 506.21230469 -127.94554687 507.23710938 -128.46484375 508.29296875 C-130 511 -130 511 -131.44114685 512.38186646 C-133.29523051 514.3064576 -134.28614161 516.20518056 -135.47680664 518.59716797 C-135.94482193 519.53019745 -136.41283722 520.46322693 -136.89503479 521.42453003 C-137.39502487 522.43685699 -137.89501495 523.44918396 -138.41015625 524.4921875 C-138.93709579 525.54793976 -139.46403534 526.60369202 -140.00694275 527.69143677 C-141.12681649 529.93791548 -142.2438076 532.18583312 -143.3581543 534.43505859 C-145.02641333 537.80216499 -146.70273645 541.16514447 -148.38085938 544.52734375 C-153.50070592 554.8054219 -158.55421354 565.10871312 -163.45703125 575.4921875 C-166.63148504 582.2115411 -169.9162316 588.80576885 -173.625 595.25 C-177.3781238 601.92273337 -180.81969818 608.65067047 -183.99902344 615.61352539 C-186.96987204 622.07351813 -190.28225687 628.33542319 -193.67602539 634.58227539 C-195.87289642 638.66756921 -197.60013501 642.56200009 -199 647 C-199.93963505 649.08080743 -200.91956349 651.14385647 -201.9375 653.1875 C-202.44152344 654.21230469 -202.94554687 655.23710938 -203.46484375 656.29296875 C-205 659 -205 659 -206.44114685 660.38186646 C-208.29523051 662.3064576 -209.28614161 664.20518056 -210.47680664 666.59716797 C-210.94482193 667.53019745 -211.41283722 668.46322693 -211.89503479 669.42453003 C-212.39502487 670.43685699 -212.89501495 671.44918396 -213.41015625 672.4921875 C-213.93709579 673.54793976 -214.46403534 674.60369202 -215.00694275 675.69143677 C-216.12681649 677.93791548 -217.2438076 680.18583312 -218.3581543 682.43505859 C-220.02641333 685.80216499 -221.70273645 689.16514447 -223.38085938 692.52734375 C-228.50070592 702.8054219 -233.55421354 713.10871312 -238.45703125 723.4921875 C-241.63148504 730.2115411 -244.9162316 736.80576885 -248.625 743.25 C-252.3781238 749.92273337 -255.81969818 756.65067047 -258.99902344 763.61352539 C-261.96987204 770.07351813 -265.28225687 776.33542319 -268.67602539 782.58227539 C-270.87289642 786.66756921 -272.60013501 790.56200009 -274 795 C-274.93963505 797.08080743 -275.91956349 799.14385647 -276.9375 801.1875 C-277.44152344 802.21230469 -277.94554687 803.23710938 -278.46484375 804.29296875 C-280 807 -280 807 -281.46484375 808.4296875 C-283.84694226 810.86633789 -285.11572093 813.91894187 -286.625 816.9375 C-298.10991249 839.09328594 -317.77101499 856.43781713 -341.41796875 864.86132812 C-363.6908539 871.92562159 -390.22389749 873.95206379 -412.12988281 864.77832031 C-414.94016168 863.608716 -417.81528937 862.63063546 -420.6875 861.625 C-422.12666409 861.08777031 -423.56498227 860.54820902 -425 860 C-425 859.34 -425 858.68 -425 858 C-425.680625 857.773125 -426.36125 857.54625 -427.0625 857.3125 C-430.19163795 855.91437453 -432.63923377 854.18909099 -435.3515625 852.12109375 C-437.12060315 850.80867708 -437.12060315 850.80867708 -440 850 C-441.16597755 848.90260936 -442.32210026 847.79283756 -443.42578125 846.6328125 C-444.60291069 845.41186931 -445.81473621 844.22420912 -447.04296875 843.0546875 C-466.66073965 824.21352371 -477.72841938 799.31221095 -478.40234375 772.23461914 C-478.62695251 749.57253092 -473.12377328 731.21386431 -462.44677734 711.38305664 C-457.94893558 703.01202787 -453.72932078 694.50862809 -449.5 686 C-440.54051143 667.99328662 -440.54051143 667.99328662 -436 659.5 C-431.30450061 650.70239987 -426.83866732 641.79170225 -422.375 632.875 C-421.84060303 631.80995239 -421.84060303 631.80995239 -421.29541016 630.72338867 C-417.35523619 622.86579001 -413.49475056 614.97945202 -409.7734375 607.015625 C-407.06740435 601.22461805 -404.28163926 595.50422882 -401.25 589.875 C-400.39157242 588.25930297 -399.53351565 586.64340888 -398.67578125 585.02734375 C-398.2370166 584.20347168 -397.79825195 583.37959961 -397.34619141 582.53076172 C-389.42044088 567.6308107 -381.77268254 552.60223569 -374.25238037 537.49478149 C-370.26882958 529.49446006 -366.27789554 521.50652356 -362.0625 513.625 C-357.16800605 504.45867157 -352.52593071 495.1664458 -347.875 485.875 C-347.4948172 485.11713196 -347.1146344 484.35926392 -346.72293091 483.57843018 C-342.27328414 474.70319333 -337.93459129 465.78752341 -333.7328186 456.79223633 C-331.36939635 451.74625797 -328.89244629 446.7813974 -326.25 441.875 C-325.39415721 440.26452163 -324.53870583 438.65383522 -323.68359375 437.04296875 C-323.02593018 435.80812744 -323.02593018 435.80812744 -322.35498047 434.54833984 C-311.77851906 414.65696972 -301.69536777 394.52693838 -291.69140625 374.34375 C-291.06551032 373.0831316 -290.43923556 371.82270118 -289.8125 370.5625 C-289.51303467 369.96034668 -289.21356934 369.35819336 -288.9050293 368.73779297 C-287.12949376 365.19048861 -285.30673755 361.6712281 -283.453125 358.1640625 C-277.18677618 346.29993433 -271.20374195 334.33363062 -265.375 322.25 C-259.84983299 310.80004698 -254.22327527 299.43949924 -248.20117188 288.24072266 C-240.27904269 273.4624093 -232.72384956 258.50413565 -225.25238037 243.49478149 C-221.26882958 235.49446006 -217.27789554 227.50652356 -213.0625 219.625 C-208.16800605 210.45867157 -203.52593071 201.1664458 -198.875 191.875 C-198.4948172 191.11713196 -198.1146344 190.35926392 -197.72293091 189.57843018 C-193.27328414 180.70319333 -188.93459129 171.78752341 -184.7328186 162.79223633 C-182.3693955 157.74625614 -179.89241164 152.78141684 -177.25 147.875 C-176.39286483 146.26191229 -175.53611075 144.64862204 -174.6796875 143.03515625 C-174.02178223 141.79983154 -174.02178223 141.79983154 -173.35058594 140.53955078 C-165.62782166 126.01818527 -158.15700747 111.38024396 -150.83291626 96.65484619 C-146.46361664 87.87192127 -142.02060692 79.14234546 -137.38769531 70.49462891 C-134.03179068 64.18328902 -130.98316026 57.73940802 -128.04125977 51.2253418 C-126.09604988 46.99256876 -124.05911947 43.56173342 -121 40 C-120.00342476 38.5115091 -119.02334555 37.01180131 -118.0625 35.5 C-115.66117842 31.87716248 -113.23274393 28.93885812 -110 26 C-109.33742188 25.35675781 -108.67484375 24.71351562 -107.9921875 24.05078125 C-96.2797796 12.97617774 -83.26662119 5.10630138 -68 0 C-67.34322266 -0.22445801 -66.68644531 -0.44891602 -66.00976562 -0.68017578 C-46.12877191 -7.12418941 -19.74781525 -6.60809929 0 0 Z " fill="#000000" transform="translate(478,6)"/>
<path d="M0 0 C0.95838846 -0.00350607 1.91677693 -0.00701215 2.90420747 -0.01062447 C6.10441242 -0.01990239 9.30443396 -0.01502443 12.5046463 -0.01015663 C14.82683729 -0.01389471 17.14902703 -0.01849687 19.47121477 -0.02388728 C25.8443723 -0.03611332 32.21747731 -0.03585725 38.59064388 -0.03349853 C44.76093346 -0.03215961 50.93121048 -0.04211685 57.10149252 -0.0507243 C71.27891594 -0.07004947 85.45632487 -0.075692 99.63375992 -0.07683842 C110.58588751 -0.07775823 121.53800944 -0.0818787 132.49013519 -0.08823967 C135.64509343 -0.09003483 138.80005168 -0.09181445 141.95500994 -0.09358943 C143.13158904 -0.09425257 143.13158904 -0.09425257 144.33193743 -0.09492911 C166.39119261 -0.10723506 188.45044582 -0.1151305 210.50970459 -0.11424255 C211.75683323 -0.11419582 211.75683323 -0.11419582 213.02915639 -0.11414814 C217.24291859 -0.11398193 221.4566808 -0.11378385 225.670443 -0.11357872 C226.50727602 -0.11353883 227.34410904 -0.11349894 228.20630064 -0.11345784 C229.89858163 -0.11337697 231.59086262 -0.11329337 233.28314362 -0.11320706 C259.60085575 -0.11198208 285.91851631 -0.12698595 312.23621368 -0.15435219 C341.82085743 -0.18510304 371.4054673 -0.20228283 400.99012804 -0.20042574 C404.14760113 -0.20027649 407.30507421 -0.20017907 410.4625473 -0.20011711 C411.62867468 -0.20008215 411.62867468 -0.20008215 412.81836019 -0.20004648 C425.30565341 -0.19998504 437.79290171 -0.21273338 450.28018159 -0.22998164 C462.84129906 -0.24697242 475.40235111 -0.24888512 487.96347374 -0.235763 C494.76262956 -0.22904232 501.56161373 -0.22909036 508.36075592 -0.2464695 C514.5936222 -0.26223687 520.82619841 -0.2592988 527.05905777 -0.24190123 C529.30536435 -0.23883942 531.55169277 -0.24243254 533.79797357 -0.25362138 C562.84960223 -0.38866282 588.33575489 6.89340986 609.96472931 27.14008141 C631.373939 49.28472197 640.54889087 75.21823939 640.23426056 105.65180016 C640.04335244 112.77543455 638.78410426 119.35120777 637.01160431 126.25726891 C636.84144806 127.15703453 636.67129181 128.05680016 636.49597931 128.98383141 C634.60878037 137.9075864 629.67833227 145.54346013 625.10901642 153.32538414 C624.35949217 154.64484697 623.6599421 155.9936337 623.00598907 157.3629818 C621.52639649 160.18158207 619.28420383 162.0351716 617.01160431 164.25726891 C615.9862955 165.48270484 614.96587743 166.71224149 613.94910431 167.94476891 C598.32987554 185.81936045 573.94832579 198.09519299 550.32305717 200.06875992 C543.54503599 200.45460805 536.76021997 200.38673618 529.97376251 200.3707943 C528.27758028 200.37051173 526.58139792 200.37067152 524.88521576 200.3712368 C520.31162197 200.37152205 515.73805475 200.36566947 511.1644671 200.35866284 C506.37321373 200.35238385 501.58195966 200.35182192 496.79070282 200.35063744 C487.73165888 200.34753747 478.67262711 200.33934217 469.61358851 200.32928795 C459.2943053 200.31808524 448.97502149 200.3126059 438.6557337 200.30759251 C417.44101714 200.29715837 396.22631149 200.27958491 375.01160431 200.25726891 C375.01331305 202.10548857 375.01331305 202.10548857 375.01505631 203.99104601 C375.06507539 258.30682637 375.11135702 312.62260893 375.13863373 366.93840599 C375.1390479 367.7610316 375.13946207 368.5836572 375.13988879 369.43121086 C375.14886802 387.31011264 375.15717849 405.18901467 375.1648003 423.06791708 C375.16854223 431.83603116 375.1724319 440.60414516 375.17639923 449.37225914 C375.17679151 450.24478073 375.17718379 451.11730232 375.17758795 452.01626396 C375.19036651 480.28498542 375.21289635 508.55368886 375.24049597 536.82239941 C375.26881224 565.877986 375.28726493 594.93356263 375.29334928 623.98916278 C375.29421371 628.09532063 375.29519062 632.20147845 375.29623604 636.30763626 C375.29643831 637.11576795 375.29664058 637.92389963 375.29684897 638.75652016 C375.30039082 651.75263941 375.31429606 664.74872779 375.33210041 677.74483446 C375.3497882 690.81792134 375.35650172 703.89097769 375.35210844 716.96407611 C375.34983089 724.72610459 375.35587243 732.48802113 375.37399694 740.25002934 C375.38662203 746.05475695 375.38346066 751.85939229 375.37430099 757.66412245 C375.37303646 760.00623421 375.37681578 762.34835551 375.38625386 764.69044859 C375.44435301 780.00284973 374.90650226 794.30882472 369.07410431 808.69476891 C368.8103299 809.36596764 368.54655548 810.03716637 368.2747879 810.72870445 C367.53819497 812.57874657 366.77603635 814.41855505 366.01160431 816.25726891 C365.68289337 817.04875328 365.35418243 817.84023766 365.01551056 818.65570641 C360.38098119 828.74868148 352.56770084 837.26896961 345.01160431 845.25726891 C344.47148712 845.84508141 343.93136993 846.43289391 343.37488556 847.03851891 C342.01160431 848.25726891 342.01160431 848.25726891 340.01160431 848.25726891 C340.01160431 848.91726891 340.01160431 849.57726891 340.01160431 850.25726891 C337.8586485 853.04344702 334.96930756 854.53066032 331.92176056 856.20648766 C329.99016674 857.26906176 328.09704008 858.38594151 326.19910431 859.50726891 C323.01160431 861.25726891 323.01160431 861.25726891 321.01160431 861.25726891 C321.01160431 861.91726891 321.01160431 862.57726891 321.01160431 863.25726891 C303.21437787 869.95045422 287.15862285 873.98939551 268.06043243 873.32660484 C266.37296419 873.26949796 264.68436258 873.24695356 262.99597931 873.23383141 C254.58938253 872.89859902 246.78180906 869.73972904 238.94348907 866.90570641 C236.98402337 866.24801136 235.02246928 865.73206036 233.01160431 865.25726891 C233.01160431 864.59726891 233.01160431 863.93726891 233.01160431 863.25726891 C232.16726837 863.01750328 231.32293243 862.77773766 230.45301056 862.53070641 C226.54820118 861.08579397 223.40142531 859.17134849 219.94910431 856.88226891 C219.35033478 856.49555016 218.75156525 856.10883141 218.13465118 855.71039391 C214.60750282 853.40789618 211.16633704 851.06015054 208.01160431 848.25726891 C208.01160431 847.59726891 208.01160431 846.93726891 208.01160431 846.25726891 C207.44441681 846.02523766 206.87722931 845.79320641 206.29285431 845.55414391 C199.93787881 841.94138386 194.6340501 834.55717462 191.01160431 828.25726891 C191.01160431 827.59726891 191.01160431 826.93726891 191.01160431 826.25726891 C190.35160431 826.25726891 189.69160431 826.25726891 189.01160431 826.25726891 C179.79549525 808.39676972 173.62660951 789.13836517 173.78112602 768.86128521 C173.78050671 767.87102456 173.77988739 766.88076391 173.77924931 765.86049536 C173.7796292 762.55804011 173.7943534 759.25581028 173.80905914 755.95339012 C173.81231945 753.55563812 173.81469201 751.15788477 173.81625521 748.76013106 C173.821676 743.55527567 173.83334035 738.35047322 173.85056877 733.14564514 C173.87615237 725.40633882 173.8900911 717.66704168 173.90168856 709.92770331 C173.92152773 696.90704571 173.95074415 683.88642503 173.98534012 670.86579895 C174.01955429 657.97728538 174.04957902 645.08877321 174.07403183 632.20023727 C174.07555566 631.39829862 174.07707948 630.59635998 174.07864948 629.77012015 C174.08636677 625.69733281 174.09400943 621.62454532 174.10162337 617.55175778 C174.15566038 588.71846757 174.2190555 559.8852048 174.2879715 531.05194664 C174.35489307 503.04414295 174.4175649 475.036335 174.47449493 447.02850914 C174.47625204 446.16489755 174.47800915 445.30128597 174.4798195 444.41150434 C174.49746073 435.73861176 174.51501568 427.065719 174.53250742 418.39282612 C174.56814079 400.72578775 174.60434991 383.05875058 174.64090729 365.3917141 C174.64258736 364.5794462 174.64426743 363.7671783 174.64599841 362.93029623 C174.69751553 338.03780147 174.75147254 313.14531284 174.80783844 288.2528286 C174.8094375 287.54622528 174.81103657 286.83962196 174.81268409 286.11160643 C174.87748476 257.49349044 174.94486929 228.87538043 175.01160431 200.25726891 C113.63160431 200.25726891 52.25160431 200.25726891 -10.98839569 200.25726891 C-10.98839569 199.59726891 -10.98839569 198.93726891 -10.98839569 198.25726891 C-12.50433319 198.41195641 -12.50433319 198.41195641 -14.05089569 198.56976891 C-32.66165308 198.43893757 -53.19806358 183.84744113 -66.05089569 171.63226891 C-71.77938477 165.72134387 -76.45064765 159.10020426 -80.98839569 152.25726891 C-81.6191098 151.34279991 -81.6191098 151.34279991 -82.26256561 150.4098568 C-85.72817675 145.19732021 -87.77564679 139.88791637 -89.67589569 133.94476891 C-89.97044647 133.07142906 -90.26499725 132.19808922 -90.56847382 131.29828453 C-97.10257563 111.34357809 -97.31811041 89.30136553 -90.98839569 69.25726891 C-90.78472382 68.61144859 -90.58105194 67.96562828 -90.37120819 67.30023766 C-82.09793995 42.22508514 -63.95022649 22.11844311 -40.72667694 9.9567318 C-27.94357818 3.58984117 -14.29331005 -0.06726841 0 0 Z " fill="#000000" transform="translate(1023.988395690918,-0.25726890563964844)"/>
<path d="M0 0 C1.70696715 -0.00462299 3.4139303 -0.01098518 5.12088531 -0.01890898 C9.75635774 -0.03543353 14.39149603 -0.02743387 19.02696884 -0.0149641 C24.04749619 -0.00584602 29.06796942 -0.01991652 34.08848572 -0.03088379 C43.90163633 -0.04860162 53.71466406 -0.0448593 63.52781934 -0.03323323 C71.50780343 -0.02417306 79.48775325 -0.02298604 87.46774101 -0.02732849 C89.17605664 -0.02824789 89.17605664 -0.02824789 90.91888369 -0.02918586 C93.23299966 -0.03046485 95.54711561 -0.03176171 97.86123156 -0.03307623 C119.52280967 -0.04446216 141.1843199 -0.03139929 162.84588688 -0.00987476 C181.40542482 0.0079968 199.96486267 0.00488774 218.5243988 -0.0135498 C240.11384522 -0.03498751 261.70323226 -0.04336624 283.29268783 -0.03110075 C285.59764126 -0.02982665 287.9025947 -0.02856916 290.20754814 -0.02732849 C291.90836163 -0.02640284 291.90836163 -0.02640284 293.64353498 -0.02545848 C301.60823267 -0.02201447 309.57289248 -0.02781338 317.5375843 -0.0372467 C327.25196236 -0.04850023 336.96621123 -0.04535625 346.6805746 -0.02412373 C351.63060433 -0.01365872 356.58041919 -0.00941334 361.53044701 -0.02272034 C366.07232248 -0.03474488 370.61378634 -0.02791813 375.1556251 -0.00681013 C376.7879453 -0.00238631 378.42030116 -0.00451372 380.05259795 -0.01431328 C408.25678941 -0.17048921 433.2520904 10.33280681 453.58421326 29.79211426 C459.93457816 36.25279239 464.85589149 43.6332923 469.27073669 51.50793457 C470.02677185 52.7067627 470.02677185 52.7067627 470.79808044 53.92980957 C483.31695612 74.59809185 484.67536579 102.38274488 479.33323669 125.44543457 C475.9663892 138.72268755 469.48528878 151.66546364 460.45042419 162.01184082 C459.06434375 163.45214371 459.06434375 163.45214371 459.27073669 165.50793457 C457.87229919 166.91809082 457.87229919 166.91809082 455.89573669 168.57043457 C452.66377497 171.30254984 449.54784942 174.11605706 446.45823669 177.00793457 C441.42181464 181.53686982 436.13302375 185.13366393 430.27073669 188.50793457 C429.39288513 189.03258301 428.51503357 189.55723145 427.61058044 190.09777832 C414.36484235 197.41926224 398.08158002 200.62390682 383.03000927 200.63936234 C382.34436788 200.64141497 381.65872649 200.6434676 380.95230809 200.64558244 C378.66790412 200.65121117 376.38356124 200.64980033 374.09915161 200.64837646 C372.43936828 200.65096249 370.77958558 200.65397631 369.11980373 200.65737987 C364.56832123 200.66542556 360.01685453 200.66723808 355.46536577 200.66797733 C350.55234569 200.66983219 345.63933372 200.6773818 340.72631836 200.68411255 C329.98619058 200.69768024 319.24606654 200.70371847 308.50593162 200.70812321 C301.79396025 200.7108889 295.08199031 200.71512691 288.37001991 200.71962738 C269.77099415 200.73181918 251.17196954 200.74211791 232.57293987 200.74550247 C231.38308557 200.74572204 230.19323128 200.7459416 228.96732079 200.74616782 C227.77468033 200.7463861 226.58203987 200.74660438 225.35325879 200.74682927 C222.93667265 200.74727273 220.52008651 200.74771929 218.10350037 200.74816895 C216.30544968 200.74850109 216.30544968 200.74850109 214.47107474 200.74883994 C195.06542275 200.75278454 175.65980838 200.77022864 156.25417092 200.79352847 C136.31023555 200.81728039 116.36631903 200.82970611 96.4223693 200.83087039 C85.23297152 200.83178512 74.04362274 200.83748614 62.85423851 200.85569 C53.32232822 200.87114306 43.79048208 200.87618096 34.25856163 200.8679519 C29.40153977 200.86406345 24.54464687 200.86488596 19.68764114 200.87900925 C15.22798891 200.89185758 10.76856109 200.89045615 6.30890868 200.87841853 C4.70854899 200.87648024 3.10817279 200.8794518 1.50783619 200.8882629 C-14.4270806 200.97033441 -30.29585944 199.74490814 -44.72926331 192.50793457 C-45.79145081 191.99617676 -46.85363831 191.48441895 -47.94801331 190.95715332 C-57.84217108 186.11814169 -57.84217108 186.11814169 -61.72926331 183.50793457 C-61.72926331 182.84793457 -61.72926331 182.18793457 -61.72926331 181.50793457 C-62.82754456 181.11154785 -62.82754456 181.11154785 -63.94801331 180.70715332 C-71.34478956 177.517813 -76.40167269 172.12660257 -80.72926331 165.50793457 C-81.18043518 165.07480957 -81.63160706 164.64168457 -82.09645081 164.19543457 C-100.32688541 145.35441125 -105.32054216 117.73704368 -104.92066956 92.67980957 C-104.66443439 83.75186718 -103.25221443 75.7041882 -99.72926331 67.50793457 C-99.34125549 66.50504395 -98.95324768 65.50215332 -98.55348206 64.46887207 C-95.74070772 57.44882119 -92.4609732 51.05185533 -88.47926331 44.63293457 C-88.04283508 43.92459473 -87.60640686 43.21625488 -87.15675354 42.4864502 C-86.07413881 40.78727343 -84.90873112 39.14137022 -83.72926331 37.50793457 C-83.06926331 37.50793457 -82.40926331 37.50793457 -81.72926331 37.50793457 C-81.41988831 36.88918457 -81.11051331 36.27043457 -80.79176331 35.63293457 C-80.10426331 34.25793457 -79.41676331 32.88293457 -78.72926331 31.50793457 C-78.06926331 31.50793457 -77.40926331 31.50793457 -76.72926331 31.50793457 C-76.72926331 30.84793457 -76.72926331 30.18793457 -76.72926331 29.50793457 C-76.06926331 29.50793457 -75.40926331 29.50793457 -74.72926331 29.50793457 C-74.72926331 28.84793457 -74.72926331 28.18793457 -74.72926331 27.50793457 C-73.40333557 26.25866699 -73.40333557 26.25866699 -71.54566956 24.86340332 C-70.53222473 24.09890869 -70.53222473 24.09890869 -69.49830627 23.31896973 C-68.77014709 22.78320312 -68.04198792 22.24743652 -67.29176331 21.69543457 C-66.55329163 21.14935547 -65.81481995 20.60327637 -65.05397034 20.04064941 C-60.12564149 16.437385 -55.27399201 13.09672981 -49.72926331 10.50793457 C-48.73281799 10.01937988 -47.73637268 9.5308252 -46.70973206 9.02746582 C-31.62188325 2.04394723 -16.48511363 -0.09911777 0 0 Z " fill="#2BA85A" transform="translate(1919.729263305664,3.4920654296875)"/>
<path d="M0 0 C1.67846174 -0.00302539 3.35692211 -0.0069168 5.03538007 -0.01159257 C9.61977323 -0.02183143 14.20408783 -0.01970128 18.78848732 -0.01541197 C23.74362831 -0.01293725 28.69875076 -0.02196816 33.65388489 -0.02944946 C43.35084754 -0.04217781 53.04778248 -0.04399248 62.74475209 -0.0416492 C70.62954273 -0.03986378 78.51432497 -0.04162048 86.39911461 -0.04587364 C87.52272991 -0.04646883 88.64634521 -0.04706402 89.80400946 -0.04767724 C92.08688409 -0.04888904 94.36975871 -0.05010317 96.65263333 -0.05131962 C118.04608909 -0.062188 139.43952908 -0.060036 160.83298572 -0.05393478 C180.38658503 -0.04876635 199.94013451 -0.06002036 219.49372397 -0.07903299 C239.59145156 -0.09842428 259.68915559 -0.10666512 279.78689259 -0.10290974 C291.06217189 -0.10099965 302.33740879 -0.10346659 313.61268044 -0.11762428 C323.21158663 -0.1295555 332.81042431 -0.13092345 342.40933148 -0.11883412 C347.30233652 -0.11295765 352.19521636 -0.11181182 357.08821297 -0.12383652 C361.57587455 -0.13473651 366.06330701 -0.13154334 370.55095806 -0.11757483 C372.16592949 -0.11493919 373.78091912 -0.11725842 375.39587263 -0.1253107 C402.32948206 -0.2501782 429.73168829 8.22188973 449.397995 27.39741516 C451.07217961 29.30381331 452.6365609 31.26844176 454.20658875 33.26069641 C454.75186218 33.82530579 455.29713562 34.38991516 455.8589325 34.97163391 C471.41077756 51.12298321 479.93948885 76.54751901 480.23905945 98.65718079 C479.74425144 123.71405715 471.51485745 151.04950073 453.23783875 169.21772766 C451.94228305 170.35647999 450.62595316 171.47209186 449.28862 172.56147766 C446.1576451 175.11677612 443.24089715 177.90499182 440.28471375 180.65913391 C438.19011347 182.27339352 436.79060824 182.85330595 434.20658875 183.26069641 C434.20658875 183.92069641 434.20658875 184.58069641 434.20658875 185.26069641 C421.0039726 192.03321997 408.59409963 197.54690869 393.7808075 199.79585266 C391.2297904 200.13194817 391.2297904 200.13194817 389.20658875 201.26069641 C387.01620596 201.35396505 384.82287086 201.37969824 382.63050556 201.37650681 C381.94383536 201.37687107 381.25716515 201.37723533 380.54968676 201.37761062 C378.22568111 201.37758988 375.90175262 201.37034432 373.57775879 201.36317444 C371.90380486 201.36162944 370.22985048 201.36051739 368.55589598 201.35980344 C363.93751734 201.35651675 359.31917008 201.34687394 354.7008034 201.33619618 C349.72641286 201.32575421 344.75201639 201.32104001 339.77761841 201.31552124 C328.88863444 201.30228055 317.99967299 201.28141718 307.11070466 201.25895596 C300.31068942 201.24494668 293.51067195 201.23243737 286.71065331 201.22020721 C267.88366962 201.18607256 249.05669171 201.15005882 230.22972584 201.10711288 C229.02378412 201.10436484 227.81784241 201.10161679 226.575357 201.09878547 C224.76208097 201.09465047 224.76208097 201.09465047 222.91217309 201.09043193 C220.46254147 201.08484655 218.01290984 201.07926414 215.5632782 201.07368469 C214.34817303 201.07091551 213.13306786 201.06814632 211.88114133 201.06529322 C192.21377178 201.02082813 172.54640589 200.98974224 152.8790032 200.9644849 C132.68664704 200.93836313 112.49433645 200.90108983 92.30202121 200.85266519 C80.96512715 200.82573484 69.62826848 200.80355237 58.2913456 200.79364777 C48.63178827 200.78515323 38.97231779 200.76642689 29.31280819 200.73454395 C24.38748485 200.71858881 19.46227403 200.70734556 14.53692245 200.7091465 C10.0192312 200.71068088 5.50179082 200.69828705 0.98416003 200.67524818 C-0.64186688 200.6693277 -2.26792151 200.66831589 -3.89395251 200.67297956 C-29.02798668 200.7364847 -56.26787376 192.92737981 -74.97309875 175.19429016 C-76.66658554 173.27124183 -78.23248637 171.29192593 -79.79341125 169.26069641 C-80.95384713 167.9634291 -82.12066766 166.67184817 -83.29341125 165.38569641 C-92.38686542 154.92924128 -98.71018045 143.58881057 -102.66841125 130.32319641 C-102.88384583 129.60124084 -103.0992804 128.87928528 -103.32124329 128.13545227 C-104.36602866 124.43109517 -105.0497846 121.11383701 -104.79341125 117.26069641 C-105.45341125 116.93069641 -106.11341125 116.60069641 -106.79341125 116.26069641 C-107.34908887 92.6230257 -104.6499731 74.12665771 -95.79341125 52.26069641 C-95.13341125 52.26069641 -94.47341125 52.26069641 -93.79341125 52.26069641 C-93.60778625 51.45632141 -93.42216125 50.65194641 -93.23091125 49.82319641 C-91.24075907 44.89108012 -88.19740629 41.30744966 -84.79341125 37.26069641 C-84.15532532 36.47565735 -83.51723938 35.69061829 -82.8598175 34.88179016 C-61.4881168 9.71247156 -32.27735973 -0.08300903 0 0 Z " fill="#2BA85A" transform="translate(1921.7934112548828,674.7393035888672)"/>
<path d="M0 0 C1.70625446 -0.004623 3.41250491 -0.01098521 5.11874723 -0.01890898 C9.7522891 -0.03543349 14.38549667 -0.02743387 19.01903892 -0.0149641 C24.03754039 -0.00584593 29.05598773 -0.01991661 34.07447815 -0.03088379 C43.88395377 -0.04860191 53.69330646 -0.04485905 63.50278676 -0.03323323 C71.48037857 -0.02417266 79.45793612 -0.02298621 87.43553162 -0.02732849 C88.57411998 -0.02794142 89.71270834 -0.02855436 90.88579938 -0.02918586 C93.19934961 -0.03046486 95.51289984 -0.03176171 97.82645005 -0.03307623 C119.48328954 -0.04446238 141.14006113 -0.03139921 162.79688948 -0.00987476 C181.34985646 0.00799441 199.9027233 0.00488975 218.45568848 -0.0135498 C240.03891855 -0.03499128 261.62208922 -0.04336393 283.20532846 -0.03110075 C285.51001898 -0.02982665 287.8147095 -0.02856917 290.11940002 -0.02732849 C291.82000244 -0.02640284 291.82000244 -0.02640284 293.55496046 -0.02545848 C301.51618269 -0.02201541 309.47736701 -0.02781137 317.43858337 -0.0372467 C327.15037099 -0.04850455 336.8620294 -0.04534739 346.57380235 -0.02412373 C351.52193072 -0.01366409 356.46984424 -0.00940396 361.41797066 -0.02272034 C365.95928151 -0.03475639 370.50018109 -0.02789976 375.04145533 -0.00681013 C376.67244745 -0.00239104 378.30347529 -0.00450265 379.93444389 -0.01431328 C408.51126345 -0.17284217 433.29545901 10.01265877 453.87512207 30.03527832 C474.10974063 51.33323077 482.80244071 78.00548312 482.21105957 107.03918457 C481.95234787 114.63657493 481.15591788 121.42643303 478.27746582 128.50793457 C477.62441741 130.52644784 476.97906436 132.54746124 476.33996582 134.57043457 C471.97076973 147.66128261 471.97076973 147.66128261 468.27746582 149.50793457 C467.98484863 150.24141113 467.69223145 150.9748877 467.39074707 151.73059082 C465.32286437 156.88941398 461.6229293 161.1101117 458.27746582 165.50793457 C457.83016113 166.10219238 457.38285645 166.6964502 456.92199707 167.30871582 C443.57480093 184.20909045 419.44631783 196.70564208 398.33278412 199.79222739 C390.14038107 200.71312562 381.94518054 200.65968466 373.71351624 200.66183472 C372.03550727 200.66585582 370.35749927 200.6702951 368.67949241 200.67511427 C364.08692614 200.68701293 359.49437033 200.69271251 354.90179169 200.69729543 C349.94108725 200.70327691 344.98039516 200.71488007 340.0196991 200.72558594 C328.05037324 200.75004842 316.08104333 200.76472627 304.11170021 200.77764601 C300.72816156 200.78136187 297.34462332 200.78533476 293.96108508 200.78939867 C272.92432772 200.8146347 251.88756966 200.83667534 230.85080051 200.84912682 C225.98398906 200.85205622 221.11717762 200.85501793 216.25036621 200.85803223 C215.0408343 200.85877828 213.83130238 200.85952433 212.58511799 200.86029299 C192.99850335 200.87294238 173.41197957 200.9061642 153.82540739 200.94783406 C133.69156753 200.99031537 113.55777412 201.01382882 93.42388958 201.01904738 C82.12940452 201.022454 70.83506159 201.03412114 59.5406208 201.06715012 C49.92089777 201.09523672 40.30134604 201.10611214 30.6815852 201.09495465 C25.77990493 201.08979045 20.87858294 201.09250838 15.97695541 201.1174202 C11.47654853 201.14010053 6.9767534 201.13902919 2.47633445 201.12021632 C0.86122345 201.11744242 -0.75393074 201.12286673 -2.36897295 201.13802926 C-24.89466699 201.3363218 -51.69879068 193.88224277 -68.42175293 177.93371582 C-69.18101074 177.13320801 -69.94026855 176.3327002 -70.72253418 175.50793457 C-73.33219466 172.83613931 -75.61108749 170.58223236 -78.72253418 168.50793457 C-78.72253418 167.84793457 -78.72253418 167.18793457 -78.72253418 166.50793457 C-79.38253418 166.50793457 -80.04253418 166.50793457 -80.72253418 166.50793457 C-93.94825344 149.39808215 -104.17427496 128.47485386 -104.72253418 106.50793457 C-104.77280762 105.57852051 -104.82308105 104.64910645 -104.87487793 103.69152832 C-105.36735747 87.95188219 -102.21587122 72.80128354 -95.72253418 58.50793457 C-95.43249512 57.8687207 -95.14245605 57.22950684 -94.84362793 56.57092285 C-83.60115782 32.47383188 -62.61794281 14.69118446 -37.94203049 5.28988212 C-25.54246247 0.92140815 -13.03215558 -0.07839123 0 0 Z " fill="#00A2E0" transform="translate(3727.7225341796875,675.4920654296875)"/>
<path d="M0 0 C1.64002239 -0.00258677 3.28004415 -0.00560079 4.92006505 -0.0090034 C9.41228037 -0.01704027 13.90447968 -0.01886112 18.39670134 -0.01960087 C23.24767195 -0.02145725 28.09863437 -0.02900757 32.94960022 -0.03573608 C43.55124343 -0.04929703 54.15288285 -0.05534082 64.75453329 -0.05974674 C71.38057758 -0.06251332 78.00662042 -0.06675146 84.63266373 -0.07125092 C102.99582515 -0.08344135 121.35898542 -0.09374066 139.7221508 -0.09712601 C141.48387248 -0.09745536 141.48387248 -0.09745536 143.2811845 -0.09779136 C144.45840212 -0.09800964 145.63561974 -0.09822791 146.84851062 -0.09845281 C149.23381543 -0.09889626 151.61912024 -0.09934283 154.00442505 -0.09979248 C155.18760693 -0.10001391 156.37078881 -0.10023534 157.58982469 -0.10046348 C176.74645206 -0.10440852 195.90304132 -0.12185461 215.05965398 -0.145152 C234.75049825 -0.16890479 254.44132342 -0.18132967 274.13218224 -0.18249393 C285.17848355 -0.18340855 296.22473522 -0.18910711 307.2710228 -0.20731354 C316.68030644 -0.2227677 326.0895251 -0.22780381 335.49881904 -0.21957543 C340.29306523 -0.2156875 345.08718076 -0.21650693 349.8814106 -0.23063278 C354.28366079 -0.24348416 358.68568366 -0.24207712 363.08793403 -0.23004207 C364.66740262 -0.2281043 366.24688796 -0.2310728 367.82633315 -0.23988643 C399.78721208 -0.40671933 425.65099174 8.66907484 449.02297974 30.89044189 C467.55383036 49.97839088 477.03553442 76.03772357 476.93313599 102.46856689 C476.20553586 129.64583702 465.29525577 153.22135797 446.58547974 172.64044189 C443.89797974 175.14044189 443.89797974 175.14044189 441.89797974 175.14044189 C441.89797974 175.80044189 441.89797974 176.46044189 441.89797974 177.14044189 C426.04080891 190.66050197 404.82875999 200.22075348 383.82970524 200.28469372 C383.13841966 200.28813513 382.44713407 200.29157654 381.73490044 200.29512224 C379.41930286 200.30544625 377.10374912 200.30877124 374.78813171 200.31211853 C373.11072369 200.3181182 371.43331715 200.32454366 369.75591224 200.33135825 C365.14659165 200.34881448 360.53727338 200.3601055 355.9279319 200.3703686 C350.95632243 200.38248902 345.98473259 200.40024579 341.01313782 200.41723633 C331.27125324 200.44955588 321.52936097 200.47638414 311.78745425 200.50103911 C303.86581037 200.52110396 295.94417215 200.54270073 288.02253532 200.56537819 C265.55626782 200.62950246 243.08999463 200.68941529 220.62370206 200.7440603 C218.80666067 200.74848086 218.80666067 200.74848086 216.95291138 200.75299072 C215.74006822 200.75594046 214.52722505 200.75889019 213.27762907 200.76192931 C193.63634145 200.80995754 173.9950981 200.86804052 154.35385216 200.9306884 C134.17949594 200.99491858 114.00513062 201.05152555 93.83073086 201.10025626 C82.50729194 201.12776556 71.18388171 201.1584098 59.86047554 201.19727135 C50.21570902 201.23031417 40.57095531 201.25626296 30.9261464 201.27312764 C26.00889053 201.28192743 21.09170071 201.29395407 16.17448044 201.31493568 C11.66444058 201.33409623 7.15448095 201.34368587 2.6444019 201.34595916 C1.02116651 201.34840472 -0.60206846 201.3542201 -2.22527664 201.36393221 C-15.45669065 201.43998136 -28.70229024 201.07162792 -41.16452026 196.14044189 C-42.55113534 195.6193326 -43.93785216 195.09849397 -45.32467651 194.57794189 C-45.96163452 194.33302002 -46.59859253 194.08809814 -47.25485229 193.83575439 C-49.84557804 192.86055126 -52.46935591 191.99472299 -55.10202026 191.14044189 C-55.10202026 190.48044189 -55.10202026 189.82044189 -55.10202026 189.14044189 C-55.95022339 188.90325439 -56.79842651 188.66606689 -57.67233276 188.42169189 C-61.57566127 186.96350083 -64.59809198 185.03321238 -67.97702026 182.64044189 C-68.56998901 182.23696533 -69.16295776 181.83348877 -69.77389526 181.41778564 C-71.25770591 180.38185333 -72.68564306 179.26681901 -74.10202026 178.14044189 C-74.10202026 177.48044189 -74.10202026 176.82044189 -74.10202026 176.14044189 C-74.78264526 175.97544189 -75.46327026 175.81044189 -76.16452026 175.64044189 C-82.96514622 172.16778183 -87.15240078 164.83024058 -91.53952026 158.76544189 C-91.98900024 158.14636963 -92.43848022 157.52729736 -92.90158081 156.88946533 C-96.10202026 152.38390194 -96.10202026 152.38390194 -96.10202026 150.14044189 C-96.76202026 149.81044189 -97.42202026 149.48044189 -98.10202026 149.14044189 C-99.33306793 146.67538018 -100.46108217 144.23401075 -101.53952026 141.70294189 C-101.85300415 140.97010986 -102.16648804 140.23727783 -102.48947144 139.48223877 C-112.64973515 115.38052972 -112.5143383 88.41257102 -103.67623901 63.83575439 C-99.24632147 52.97851416 -92.9874878 42.80886366 -85.10202026 34.14044189 C-84.23061401 33.17622314 -83.35920776 32.21200439 -82.46139526 31.21856689 C-60.23727978 7.44031746 -31.64626938 -0.0200178 0 0 Z " fill="#00A2E0" transform="translate(3733.102020263672,3.85955810546875)"/>
<path d="M0 0 C0.80691099 -0.00297112 1.61382199 -0.00594224 2.44518483 -0.0090034 C5.12298275 -0.01760779 7.80073554 -0.0191916 10.47854614 -0.02069092 C12.40961297 -0.0253251 14.34067889 -0.03035056 16.27174377 -0.03573608 C21.50165828 -0.04880769 26.73155997 -0.05529524 31.96148825 -0.05974674 C35.23733915 -0.06268705 38.51318663 -0.06679372 41.7890358 -0.07125092 C52.06250614 -0.08491449 62.33596856 -0.09458569 72.60944736 -0.09845281 C84.42304339 -0.10292539 96.23652326 -0.12044092 108.05008399 -0.1494534 C117.21057392 -0.17116015 126.37103138 -0.18116193 135.53154671 -0.18249393 C140.98873698 -0.18353589 146.44581788 -0.18931246 151.9029808 -0.20731354 C157.04619807 -0.22394962 162.1892256 -0.22587541 167.3324604 -0.21717453 C169.2047343 -0.21641228 171.07701906 -0.22063743 172.94926643 -0.23063278 C194.47667378 -0.33868287 217.06699771 1.92092545 235.49075317 14.14044189 C236.54391724 14.82622314 237.5970813 15.51200439 238.68215942 16.21856689 C245.29379832 20.66005745 251.22303639 25.51337324 256.86575317 31.14044189 C257.43132935 31.70440674 257.99690552 32.26837158 258.57962036 32.84942627 C262.49075317 36.87076633 262.49075317 36.87076633 262.49075317 39.14044189 C263.15075317 39.14044189 263.81075317 39.14044189 264.49075317 39.14044189 C266.20022554 41.69406079 267.77176651 44.2320545 269.30325317 46.89044189 C269.75394165 47.67032471 270.20463013 48.45020752 270.66897583 49.25372314 C278.67864777 63.3308013 283.86672091 78.84071912 284.49075317 95.14044189 C284.58549927 96.75885986 284.58549927 96.75885986 284.68215942 98.40997314 C285.53094796 124.12005183 275.30352093 149.00528793 258.49075317 168.14044189 C257.34606567 169.68731689 257.34606567 169.68731689 256.17825317 171.26544189 C236.15686208 192.68367423 207.69575017 200.76557846 179.29466391 202.25566125 C173.96742095 202.43376979 168.6401681 202.42404862 163.31057739 202.4151001 C161.56215704 202.41946158 159.81373859 202.42464943 158.06532288 202.43058777 C153.36863204 202.44383763 148.67202237 202.44457206 143.97531652 202.44202447 C140.02743849 202.44094472 136.0795762 202.44586372 132.13170159 202.45062989 C122.80117783 202.46167761 113.47069435 202.46218992 104.14016724 202.45611572 C94.57844188 202.45008576 85.01686404 202.4623731 75.45516384 202.48368579 C67.18955241 202.50141854 58.92398744 202.50728475 50.65835774 202.50404805 C45.74666328 202.50225284 40.83507395 202.5046915 35.92339706 202.51876259 C-5.21348769 202.62644061 -43.51628457 201.29325992 -74.44674683 170.64044189 C-90.32604944 154.38031811 -100.14068466 132.72073458 -102.50924683 110.14044189 C-102.66651245 108.93130127 -102.82377808 107.72216064 -102.98580933 106.47637939 C-104.06726485 95.89507922 -102.39203591 86.56323072 -99.98287964 76.25274658 C-99.38022485 73.56503049 -98.92336076 70.86302072 -98.50924683 68.14044189 C-97.84924683 68.14044189 -97.18924683 68.14044189 -96.50924683 68.14044189 C-96.42803589 67.32059814 -96.34682495 66.50075439 -96.26315308 65.65606689 C-95.32426265 61.27782138 -93.56426126 57.80852216 -91.44674683 53.89044189 C-90.84382813 52.76436523 -90.84382813 52.76436523 -90.22872925 51.61553955 C-86.91174872 45.5731751 -83.07708272 40.30621339 -78.50924683 35.14044189 C-78.0322937 34.53329346 -77.55534058 33.92614502 -77.06393433 33.30059814 C-61.99392625 14.31238796 -36.92219908 3.42487119 -13.33209038 0.61748123 C-8.87385937 0.13145328 -4.48141952 -0.00528221 0 0 Z " fill="#2BA85A" transform="translate(1917.5092468261719,338.85955810546875)"/>
<path d="M0 0 C2.01637649 -0.00379553 4.03275036 -0.00930562 6.04911804 -0.01637268 C11.46010627 -0.0301802 16.8707713 -0.01926386 22.28174114 -0.00266147 C27.97967892 0.01132608 33.67760051 0.00471381 39.37554932 0.00120544 C48.93417489 -0.00148507 58.49267405 0.0118817 68.05126953 0.03515625 C79.06453752 0.06178907 90.07759478 0.06349897 101.09088397 0.05176789 C111.74078458 0.04095028 122.3906098 0.0472064 133.04050446 0.06132317 C137.54885922 0.06704542 142.05715812 0.06703023 146.56551361 0.06225777 C151.88126316 0.05744861 157.19678492 0.06775104 162.51249123 0.08921242 C164.45052383 0.09472608 166.38857857 0.09529621 168.32661247 0.09025955 C182.81150069 0.05736495 196.79924782 1.09200158 210.54394531 6.12670898 C211.58736084 6.50412231 211.58736084 6.50412231 212.65185547 6.88916016 C235.68325906 15.65320707 253.52512911 33.01536495 264.98144531 54.50170898 C265.55894531 55.58452148 266.13644531 56.66733398 266.73144531 57.78295898 C278.15466275 80.85785821 278.93398559 108.21791685 271.14404297 132.5300293 C261.96649475 159.48132035 242.74276066 179.12651424 217.73144531 191.81420898 C217.07015625 192.15186279 216.40886719 192.4895166 215.72753906 192.83740234 C210.16318557 195.59239851 204.47946811 197.23602811 198.41894531 198.56420898 C197.71640625 198.72018555 197.01386719 198.87616211 196.29003906 199.03686523 C190.60722917 200.18111968 185.18380435 200.64679092 179.38844299 200.63542175 C178.53635394 200.63768731 177.68426488 200.63995287 176.80635494 200.64228708 C173.95788486 200.64860499 171.10946263 200.64779911 168.26098633 200.64697266 C166.21549925 200.64996566 164.17001275 200.65336852 162.12452698 200.65715027 C156.57033022 200.66598346 151.01614887 200.66832819 145.46194577 200.66896605 C141.98730831 200.66967733 138.51267475 200.67181321 135.03803825 200.67446327 C122.90239082 200.68371683 110.76675436 200.68779844 98.63110352 200.68701172 C87.34322089 200.68641202 76.05538622 200.69694271 64.76751572 200.71275538 C55.06023198 200.72586611 45.35296383 200.73119408 35.64567131 200.73055631 C29.85547986 200.73030221 24.06533097 200.73310396 18.27514839 200.74373436 C12.82094017 200.75347404 7.36681465 200.75345456 1.91260338 200.74621773 C-0.07906084 200.74517891 -2.07073037 200.74749254 -4.06238556 200.75357819 C-19.92636743 200.79887489 -34.47438519 200.56653481 -49.01855469 193.50170898 C-50.28748158 192.927455 -51.5570488 192.35461448 -52.82714844 191.78295898 C-62.66099316 187.23995612 -70.83827764 181.57625305 -79.01855469 174.50170898 C-79.69144531 173.9306543 -80.36433594 173.35959961 -81.05761719 172.77124023 C-99.84132883 155.45639704 -109.8665122 129.41730791 -111.18652344 104.30639648 C-111.35329662 79.29041892 -103.88593787 55.97256278 -88.01855469 36.50170898 C-87.00535156 35.24293945 -87.00535156 35.24293945 -85.97167969 33.95874023 C-63.92411257 8.00859281 -32.78213069 -0.17921174 0 0 Z " fill="#00A2E0" transform="translate(3734.0185546875,339.498291015625)"/>
<path d="" fill="#042422" transform="translate(0,0)"/>
</svg>
