<?xml version="1.0" encoding="UTF-8"?>
<svg version="1.1" xmlns="http://www.w3.org/2000/svg" width="200" height="216">
<path d="M0 0 C66 0 132 0 200 0 C200 71.28 200 142.56 200 216 C134 216 68 216 0 216 C0 144.72 0 73.44 0 0 Z " fill="#f0f0f0" transform="translate(0,0)"/>
<path d="M0 0 C10.26315863 8.01894794 17.0659674 22.8848233 24 33.6875 C27.6073394 33.13167926 30.07958334 32.25433297 33.1015625 30.21875 C33.83890625 29.73019531 34.57625 29.24164063 35.3359375 28.73828125 C36.09132812 28.22652344 36.84671875 27.71476562 37.625 27.1875 C39.13606815 26.17416544 40.64901427 25.16362418 42.1640625 24.15625 C42.82873535 23.70701172 43.4934082 23.25777344 44.17822266 22.79492188 C48.79999645 19.98543837 53.77111977 20.13057785 59 20.6875 C63.11908997 21.95916536 66.09069694 23.69294978 69 26.875 C71.0013321 32.50374652 70.83620737 37.65026706 68.375 43.125 C64.29844383 49.70230071 57.38812253 53.60970637 51 57.6875 C50.360625 58.09613281 49.72125 58.50476563 49.0625 58.92578125 C45.78010642 61.01036588 42.47955131 63.06372699 39.16796875 65.1015625 C34.03663109 68.26700599 28.98607965 71.55504256 23.93432617 74.84545898 C21.95902394 76.13052845 19.97968581 77.40919696 18 78.6875 C17.29488281 79.14946777 16.58976562 79.61143555 15.86328125 80.08740234 C15.16589844 80.53680176 14.46851563 80.98620117 13.75 81.44921875 C12.81414062 82.05769653 12.81414062 82.05769653 11.859375 82.6784668 C7.28234223 85.16230036 2.08509168 85.31649218 -3 84.6875 C-7.8668039 82.25409805 -10.73462083 78.91328481 -14 74.6875 C-13.505 73.6975 -13.505 73.6975 -13 72.6875 C-12.360625 73.038125 -11.72125 73.38875 -11.0625 73.75 C-6.80995535 75.05179938 -3.27959733 74.85818695 1 73.6875 C4.73355858 71.19846095 6.28284803 68.87699402 7.1875 64.5625 C7.48600252 58.25277439 4.32206118 53.79961704 1 48.6875 C0.51563477 47.93404297 0.03126953 47.18058594 -0.46777344 46.40429688 C-3.21463943 42.13728838 -5.98608213 37.88784025 -8.78125 33.65234375 C-20.08751631 16.40065941 -20.08751631 16.40065941 -19 6.6875 C-17.39306865 3.4736373 -16.05663831 1.51771581 -13.25 -0.6875 C-8.40225504 -2.03409582 -4.54530736 -1.98857197 0 0 Z " fill="#5195D5" transform="translate(116,15.3125)"/>
<path d="M0 0 C6.30838599 2.52594511 8.92051962 7.82930615 12.046875 13.546875 C14.21188514 17.37461293 16.59429183 20.98906706 19.0625 24.625 C22.89856668 30.30659208 26.63089984 36.02440005 30 42 C30.38414063 42.65742187 30.76828125 43.31484375 31.1640625 43.9921875 C32.6865705 47.6490525 31.9269339 51.2385291 31 55 C29.20867928 58.00685978 27.75317877 59.52657334 24.8125 61.375 C19.25591018 62.60979774 13.96071266 61.7447027 9 59 C9.05220703 59.88751953 9.05220703 59.88751953 9.10546875 60.79296875 C9.27443953 65.72530633 9.27178139 69.0271226 6 73 C3.02643325 75.64531587 1.10183976 76.43130555 -2.875 76.4375 C-3.69742188 76.45683594 -4.51984375 76.47617188 -5.3671875 76.49609375 C-10.36029636 75.55525573 -13.64755468 72.76819842 -16.52734375 68.71484375 C-17.34299834 67.46364223 -18.14598737 66.20411178 -18.9375 64.9375 C-19.58307861 63.93614014 -19.58307861 63.93614014 -20.24169922 62.91455078 C-21.50526714 60.94968146 -22.75323096 58.97555424 -24 57 C-24.63292969 56.01902344 -25.26585938 55.03804687 -25.91796875 54.02734375 C-27.63224137 51.36374854 -29.32051853 48.6856573 -31 46 C-31.34869141 45.44473633 -31.69738281 44.88947266 -32.05664062 44.31738281 C-33.16668514 42.5473381 -34.27161203 40.7742005 -35.375 39 C-36.04273438 37.9275 -36.71046875 36.855 -37.3984375 35.75 C-39.96204495 31.34809843 -40.34863155 28.05515742 -40 23 C-38.191879 18.90793668 -35.83654027 16.30192416 -32 14 C-26.28200075 13.36466675 -23.02494685 13.98503189 -18 17 C-18.08121094 16.443125 -18.16242188 15.88625 -18.24609375 15.3125 C-18.56170572 11.49939217 -18.60735671 8.95646726 -16.51171875 5.65625 C-11.10783979 -0.51961167 -8.06974097 -1.8479308 0 0 Z " fill="#EE3635" transform="translate(92,29)"/>
<path d="M0 0 C11.01120318 4.70026093 16.71097888 15.35247633 22.66015625 25.1796875 C24.51879033 28.24669593 26.47663633 31.20575431 28.5625 34.125 C31.42956207 38.14846658 34.17846414 42.2360814 36.875 46.375 C37.26888916 46.97070801 37.66277832 47.56641602 38.06860352 48.18017578 C41.60144679 53.64362359 42.44884465 57.49175261 42 64 C40.43722469 68.06321581 38.96623493 71.01688254 35 73 C30.35028647 73.82053768 27.44688944 72.99851273 23.5 70.625 C18.35820304 66.87685508 15.34707999 62.33906686 12 57 C11.1715674 55.72246616 10.34066394 54.44653251 9.5078125 53.171875 C7.63427211 50.30025835 5.77341422 47.42100578 3.921875 44.53515625 C1.95160094 41.46740497 -0.0390171 38.41437389 -2.046875 35.37109375 C-2.54155273 34.61771729 -3.03623047 33.86434082 -3.54589844 33.08813477 C-4.48762104 31.65483803 -5.43333685 30.22415374 -6.38378906 28.79663086 C-10.8089083 22.03547957 -14.66448247 15.33754403 -13 7 C-9.80138125 1.32541341 -6.39170797 -0.49166984 0 0 Z " fill="#5195D6" transform="translate(27,31)"/>
<path d="M0 0 C7.98738301 6.12982093 13.3468672 17.09523974 18.75 25.4375 C19.39582031 26.42621094 20.04164063 27.41492188 20.70703125 28.43359375 C30.85039337 44.03395971 30.85039337 44.03395971 30 51.6875 C28.75073785 55.17228389 27.64413441 57.11914611 24.875 59.5625 C19.61807995 61.61955567 14.88392831 61.38525123 9.625 59.4375 C4.81549879 56.23116586 2.29462406 51.02895184 -0.6875 46.1875 C-3.81034709 41.14545685 -6.98769519 36.16135615 -10.3125 31.25 C-11.54474757 29.39787942 -12.77418742 27.5438858 -14 25.6875 C-14.52980469 24.89988281 -15.05960937 24.11226562 -15.60546875 23.30078125 C-19.0052004 17.84406911 -20.18528433 13.09238504 -19 6.6875 C-17.39306865 3.4736373 -16.05663831 1.51771581 -13.25 -0.6875 C-8.40225504 -2.03409582 -4.54530736 -1.98857197 0 0 Z " fill="#3EB94A" transform="translate(116,15.3125)"/>
<path d="M0 0 C6.30838599 2.52594511 8.92051962 7.82930615 12.046875 13.546875 C14.21188514 17.37461293 16.59429183 20.98906706 19.0625 24.625 C22.89856668 30.30659208 26.63089984 36.02440005 30 42 C30.38414063 42.65742187 30.76828125 43.31484375 31.1640625 43.9921875 C32.6865705 47.6490525 31.9269339 51.2385291 31 55 C29.20867928 58.00685978 27.75317877 59.52657334 24.8125 61.375 C20.78274365 62.27050141 16.96766388 62.18214643 13 61 C8.28632238 57.98205109 5.80940963 54.03434792 2.9375 49.375 C1.98326135 47.85973741 1.02747452 46.3454489 0.0703125 44.83203125 C-0.4256543 44.04521973 -0.92162109 43.2584082 -1.43261719 42.44775391 C-4.61919689 37.47132897 -7.95863128 32.59382278 -11.29125977 27.71435547 C-12.01913696 26.63565186 -12.01913696 26.63565186 -12.76171875 25.53515625 C-13.19444092 24.899729 -13.62716309 24.26430176 -14.07299805 23.60961914 C-15 22 -15 22 -15 20 C-15.99 19.67 -16.98 19.34 -18 19 C-19.06806874 9.77731123 -19.06806874 9.77731123 -16.51171875 5.5234375 C-11.14742574 -0.58497069 -7.95976656 -1.8227472 0 0 Z " fill="#FABC08" transform="translate(92,29)"/>
<path d="M0 0 C3.3076344 2.1289811 6.22312783 4.44625567 8 8 C8.08426094 9.6674606 8.10725143 11.33825187 8.09765625 13.0078125 C8.09443359 13.99394531 8.09121094 14.98007813 8.08789062 15.99609375 C8.07951172 17.02863281 8.07113281 18.06117188 8.0625 19.125 C8.05798828 20.16527344 8.05347656 21.20554688 8.04882812 22.27734375 C8.03701952 24.85161962 8.02055075 27.42578146 8 30 C6.02 30 4.04 30 2 30 C1.67 29.34 1.34 28.68 1 28 C0.154375 28.495 -0.69125 28.99 -1.5625 29.5 C-5.54883337 31.23949093 -7.6988098 31.67913529 -12 31 C-15.01114851 29.4741973 -17.13283537 27.82956121 -19 25 C-19.5677786 21.71256193 -19.19797835 19.10412125 -18 16 C-15.25409289 13.18368501 -12.72020884 11.10032093 -8.72265625 10.8671875 C-7.40587891 10.87105469 -7.40587891 10.87105469 -6.0625 10.875 C-5.18722656 10.87242187 -4.31195313 10.86984375 -3.41015625 10.8671875 C-1 11 -1 11 2 12 C0.91215032 8.75016865 0.91215032 8.75016865 -1 6 C-3.06772734 5.80058132 -3.06772734 5.80058132 -5.4375 5.8125 C-6.24058594 5.79832031 -7.04367188 5.78414062 -7.87109375 5.76953125 C-10.21630633 5.79837644 -10.21630633 5.79837644 -12 8 C-14.625 7.625 -14.625 7.625 -17 7 C-16.9375 5.25 -16.9375 5.25 -16 3 C-10.76209794 -1.0375495 -6.37899149 -2.16750943 0 0 Z " fill="#7D7F7C" transform="translate(107,131)"/>
<path d="M0 0 C3.73090415 2.08930632 5.40334077 4.10286231 7 8 C7.22705078 10.47363281 7.22705078 10.47363281 7.1953125 13.203125 C7.18886719 14.1828125 7.18242187 15.1625 7.17578125 16.171875 C7.15902344 17.18765625 7.14226562 18.2034375 7.125 19.25 C7.11597656 20.28125 7.10695312 21.3125 7.09765625 22.375 C7.07412011 24.91690287 7.04124023 27.4583328 7 30 C5.02 30 3.04 30 1 30 C0.67 29.34 0.34 28.68 0 28 C-0.495 28.495 -0.99 28.99 -1.5 29.5 C-4.95106192 31.57063715 -8.11793814 31.57883626 -12 31 C-15.58552881 29.36312815 -16.79315055 28.31027417 -19 25 C-19.34061873 21.9830912 -19.57212107 19.90592185 -19 17 C-16.82425584 14.30894802 -15.08934144 12.54467072 -12 11 C-10.16871229 10.90391392 -8.33380041 10.87017421 -6.5 10.875 C-5.5203125 10.87242187 -4.540625 10.86984375 -3.53125 10.8671875 C-1 11 -1 11 1 12 C-0.08784968 8.75016865 -0.08784968 8.75016865 -2 6 C-3.68608966 5.92794489 -5.37500659 5.91613932 -7.0625 5.9375 C-7.98160156 5.94652344 -8.90070313 5.95554688 -9.84765625 5.96484375 C-10.55792969 5.97644531 -11.26820313 5.98804688 -12 6 C-12.33 6.99 -12.66 7.98 -13 9 C-15.475 8.01 -15.475 8.01 -18 7 C-14.61028834 -1.19180318 -7.90661503 -0.98427082 0 0 Z " fill="#7B7D7A" transform="translate(167,131)"/>
<path d="M0 0 C3.58686132 1.39489051 6.65669835 2.8755978 9 6 C9 6.99 9 7.98 9 9 C6.8125 9.75 6.8125 9.75 4 10 C3.21625 9.34 2.4325 8.68 1.625 8 C-0.9401845 5.59912393 -0.9401845 5.59912393 -4.6875 6.1875 C-7.85351313 6.83456203 -7.85351313 6.83456203 -10 8 C-10.33397787 10.87413125 -10.33397787 10.87413125 -10 14 C-7.29752099 16.49840165 -4.49590567 17.70485975 -1.0625 18.9375 C3.6415438 20.75953758 7.28997524 22.63853724 10.3125 26.8125 C11.75994086 31.41799364 11.51609916 34.88178516 9.5 39.25 C5.44150796 43.71434124 1.25026043 44.72841684 -4.625 45.4375 C-9.92306327 44.75071402 -12.78366989 42.24751807 -16.4375 38.5 C-18 36 -18 36 -17.75 33.6875 C-17.5025 33.130625 -17.255 32.57375 -17 32 C-15.68 32 -14.36 32 -13 32 C-11.375 34.4375 -11.375 34.4375 -10 37 C-7.67313547 38.16343227 -6.15278587 38.19895988 -3.5625 38.25 C-2.38880859 38.28867188 -2.38880859 38.28867188 -1.19140625 38.328125 C1.53189544 37.9203579 2.36586394 37.18055031 4 35 C4.75015195 32.04308291 4.75015195 32.04308291 4 29 C0.92192225 26.30668196 -2.18945148 24.88153602 -6 23.5625 C-10.55887879 21.96995501 -14.7702386 19.45952281 -17 15 C-17.70114489 7.87169364 -17.70114489 7.87169364 -14.6875 4.125 C-9.49294019 0.01767364 -6.47551808 -0.73057127 0 0 Z " fill="#7A7C79" transform="translate(41,117)"/>
<path d="M0 0 C1.65 0 3.3 0 5 0 C5.33 5.28 5.66 10.56 6 16 C7.32 15.01 8.64 14.02 10 13 C12.3671875 12.4609375 12.3671875 12.4609375 14.875 12.375 C15.69742188 12.32085937 16.51984375 12.26671875 17.3671875 12.2109375 C20.88435438 13.26504389 22.55629896 14.85767946 24.81787109 17.71386719 C27.14487086 22.21407903 26.61422408 26.99660262 26.375 31.9375 C26.34792969 33.00291016 26.32085937 34.06832031 26.29296875 35.16601562 C26.22265164 37.77946823 26.12430438 40.38865175 26 43 C24.02 43 22.04 43 20 43 C19.98018066 42.34402832 19.96036133 41.68805664 19.93994141 41.01220703 C19.84487493 38.04938931 19.73512248 35.08729468 19.625 32.125 C19.5940625 31.09246094 19.563125 30.05992187 19.53125 28.99609375 C19.49257812 28.00996094 19.45390625 27.02382812 19.4140625 26.0078125 C19.36693115 24.64100342 19.36693115 24.64100342 19.31884766 23.24658203 C19.20117489 20.80068814 19.20117489 20.80068814 17 19 C12.93904042 18.52786327 12.93904042 18.52786327 9 19 C6.34896542 21.88368137 5.61269402 23.88394665 5.48828125 27.765625 C5.45283203 28.65507812 5.41738281 29.54453125 5.38085938 30.4609375 C5.35830078 31.38132813 5.33574219 32.30171875 5.3125 33.25 C5.27833984 34.18585938 5.24417969 35.12171875 5.20898438 36.0859375 C5.12667838 38.39050533 5.0574737 40.69470119 5 43 C3.35 43 1.7 43 0 43 C0 28.81 0 14.62 0 0 Z " fill="#797B78" transform="translate(58,118)"/>
<path d="M0 0 C1.65 0 3.3 0 5 0 C5.33 8.25 5.66 16.5 6 25 C9.65467805 21.06973266 9.65467805 21.06973266 13.26782227 17.1015625 C16.27281543 13.98473886 17.40397431 13.05727574 21.90234375 12.625 C23.43568359 12.810625 23.43568359 12.810625 25 13 C25 13.66 25 14.32 25 15 C23.3203125 16.65625 23.3203125 16.65625 21.125 18.5 C19.00964496 20.28933258 16.95980876 22.04019124 15 24 C15.21980099 28.18577532 18.18349781 31.36070297 20.5625 34.625 C25 40.73918816 25 40.73918816 25 43 C22.2734375 43.3359375 22.2734375 43.3359375 19 43 C16.6640625 40.6640625 16.6640625 40.6640625 14.625 37.625 C13.93664062 36.62726563 13.24828125 35.62953125 12.5390625 34.6015625 C11 32 11 32 11 30 C8.37255115 30.78693049 8.37255115 30.78693049 6 33 C5.24035136 36.3221254 5.07018478 39.59922821 5 43 C3.35 43 1.7 43 0 43 C0 28.81 0 14.62 0 0 Z " fill="#777976" transform="translate(121,118)"/>
<path d="M0 0 C11 0 11 0 14.1875 2.1875 C16 5 16 5 16.6875 7.5 C15.84019236 10.58111871 14.32095712 12.13778334 11.80078125 14.0625 C8.88103504 15.58254141 6.19854371 15.31985437 3 15 C3 17.97 3 20.94 3 24 C2.01 24 1.02 24 0 24 C0 16.08 0 8.16 0 0 Z " fill="#828481" transform="translate(57,170)"/>
<path d="M0 0 C1.7109375 1.09765625 1.7109375 1.09765625 3 3 C3.29296875 6.35546875 3.29296875 6.35546875 3.1875 10.1875 C3.16042969 11.45980469 3.13335937 12.73210937 3.10546875 14.04296875 C3.07066406 15.01878906 3.03585938 15.99460938 3 17 C2.01 17 1.02 17 0 17 C-0.33 16.34 -0.66 15.68 -1 15 C-1.66 15.66 -2.32 16.32 -3 17 C-5.9375 17.375 -5.9375 17.375 -9 17 C-10.9375 15.3125 -10.9375 15.3125 -12 13 C-11.75925978 9.62963689 -11.41201979 8.41201979 -9 6 C-6.31160615 5.73008094 -3.70858064 5.91262643 -1 6 C-1.33 5.01 -1.66 4.02 -2 3 C-5.19902639 2.91113816 -7.92677456 3.08941469 -11 4 C-8.40658844 -1.74255417 -5.99557401 -1.26222611 0 0 Z " fill="#969895" transform="translate(93,178)"/>
<path d="M0 0 C3.28327904 1.21338573 4.82596924 2.22538048 6.875 5.0625 C6.875 6.7125 6.875 8.3625 6.875 10.0625 C2.585 10.0625 -1.705 10.0625 -6.125 10.0625 C-5.135 11.3825 -4.145 12.7025 -3.125 14.0625 C-0.82654505 14.3302441 -0.82654505 14.3302441 1.5625 13.8125 C2.77486328 13.61914062 2.77486328 13.61914062 4.01171875 13.421875 C4.62660156 13.30328125 5.24148437 13.1846875 5.875 13.0625 C4.125 16.9375 4.125 16.9375 1.875 18.0625 C-1 18.375 -1 18.375 -4.125 18.0625 C-7.63981183 15.21265257 -8.96961948 13.2389525 -9.5625 8.75 C-9.125 5.0625 -9.125 5.0625 -6.5 2.0625 C-3.125 0.0625 -3.125 0.0625 0 0 Z " fill="#7C7E7B" transform="translate(123.125,176.9375)"/>
<path d="M0 0 C0.99 0.66 1.98 1.32 3 2 C2.7181109 5.38266921 2.16935563 6.81072018 -0.125 9.375 C-3.88963243 11.50283572 -5.88531691 11.08689742 -10 10 C-10.66 9.34 -11.32 8.68 -12 8 C-11.84491045 4.97575378 -11.40750539 3.45452525 -9.375 1.1875 C-6.09896279 -0.45051861 -3.61413643 -0.32855786 0 0 Z " fill="#F5F6F3" transform="translate(165,146)"/>
<path d="M0 0 C0.99 0.66 1.98 1.32 3 2 C2.7181109 5.38266921 2.16935563 6.81072018 -0.125 9.375 C-3.88963243 11.50283572 -5.88531691 11.08689742 -10 10 C-10.66 9.34 -11.32 8.68 -12 8 C-11.84491045 4.97575378 -11.40750539 3.45452525 -9.375 1.1875 C-6.09896279 -0.45051861 -3.61413643 -0.32855786 0 0 Z " fill="#F6F7F4" transform="translate(106,146)"/>
<path d="M0 0 C0.99 0 1.98 0 3 0 C4.32 2.97 5.64 5.94 7 9 C9.6465335 6.3534665 10.59941997 3.43778736 12 0 C12.99 0 13.98 0 15 0 C14.02986575 3.01252216 13.028865 6.00730933 12 9 C11.61328125 10.14082031 11.2265625 11.28164062 10.828125 12.45703125 C10.20164062 14.21080078 10.20164062 14.21080078 9.5625 16 C9.17191406 17.11375 8.78132813 18.2275 8.37890625 19.375 C7 22 7 22 4.83984375 22.875 C4.23269531 22.91625 3.62554687 22.9575 3 23 C3.93461237 18.19342208 3.93461237 18.19342208 4.65234375 16.0703125 C5.09859984 13.41283239 4.46536862 12.42673646 3.125 10.125 C1.29092964 6.74778078 0.38662561 3.86625609 0 0 Z " fill="#7E807D" transform="translate(98,178)"/>
<path d="M0 0 C1.32 0 2.64 0 4 0 C4 8.25 4 16.5 4 25 C2.68 25 1.36 25 0 25 C0 16.75 0 8.5 0 0 Z " fill="#939592" transform="translate(75,170)"/>
<path d="M0 0 C3 1 6 2 9 3 C8.690625 3.5775 8.38125 4.155 8.0625 4.75 C7.07416636 6.84294184 6.4831387 8.74535275 6 11 C3.1875 11.25 3.1875 11.25 0 11 C-1.9375 9.3125 -1.9375 9.3125 -3 7 C-2.75925978 3.62963689 -2.41201979 2.41201979 0 0 Z " fill="#858784" transform="translate(84,184)"/>
<path d="M0 0 C3.23060419 0.55700072 5.0658223 1.29215122 7 4 C7 5.65 7 7.3 7 9 C2.71 9 -1.58 9 -6 9 C-5 4 -5 4 -3 2 C-2.01 2 -1.02 2 0 2 C0 1.34 0 0.68 0 0 Z " fill="#90928F" transform="translate(123,178)"/>
<path d="M0 0 C3.375 -0.125 3.375 -0.125 7 0 C9 2 9 2 9.25 4.5 C9 7 9 7 7 9 C3.375 9.125 3.375 9.125 0 9 C0 6.03 0 3.06 0 0 Z " fill="#f0f0f0" transform="translate(60,173)"/>
<path d="M0 0 C3.3 0 6.6 0 10 0 C9.67 0.99 9.34 1.98 9 3 C7.35 3 5.7 3 4 3 C3.67 7.29 3.34 11.58 3 16 C2.01 16 1.02 16 0 16 C0 10.72 0 5.44 0 0 Z " fill="#777976" transform="translate(133,178)"/>
<path d="M0 0 C0.66 0 1.32 0 2 0 C2 3.96 2 7.92 2 12 C-1.11257569 12 -3.10765685 11.82638376 -6 11 C-5.01 11 -4.02 11 -3 11 C-2.34 9.02 -1.68 7.04 -1 5 C-3.97 4.505 -3.97 4.505 -7 4 C-6.67 3.34 -6.34 2.68 -6 2 C-4.35 2 -2.7 2 -1 2 C-0.67 1.34 -0.34 0.68 0 0 Z " fill="#737572" transform="translate(93,182)"/>
<path d="M0 0 C1.98 0 3.96 0 6 0 C6 1.32 6 2.64 6 4 C5.34 4.66 4.68 5.32 4 6 C1.375 5.625 1.375 5.625 -1 5 C-0.67 3.35 -0.34 1.7 0 0 Z " fill="#f0f0f0" transform="translate(86,186)"/>
<path d="M0 0 C0.53625 0.268125 1.0725 0.53625 1.625 0.8125 C0.625 2.8125 0.625 2.8125 -2.875 4.0625 C-4.6075 4.92875 -4.6075 4.92875 -6.375 5.8125 C-7.43249557 8.89619887 -7.43249557 8.89619887 -7.375 11.8125 C-7.705 11.8125 -8.035 11.8125 -8.375 11.8125 C-9.08568348 5.77169044 -9.08568348 5.77169044 -7.1796875 3.19921875 C-4.82269644 1.09687747 -3.23207587 -0.25516388 0 0 Z " fill="#8A8C89" transform="translate(122.375,177.1875)"/>
<path d="M0 0 C3.3 0 6.6 0 10 0 C10 0.66 10 1.32 10 2 C7.36 2.33 4.72 2.66 2 3 C1.67 5.64 1.34 8.28 1 11 C0.67 11 0.34 11 0 11 C0 7.37 0 3.74 0 0 Z " fill="#727471" transform="translate(58,171)"/>
<path d="M0 0 C2.5 -0.3125 2.5 -0.3125 5 0 C5.66 0.66 6.32 1.32 7 2 C6.67 2.99 6.34 3.98 6 5 C3.36 4.34 0.72 3.68 -2 3 C-1.34 2.01 -0.68 1.02 0 0 Z " fill="#E4E6E3" transform="translate(86,180)"/>
<path d="M0 0 C0.33 0.66 0.66 1.32 1 2 C0.67 2.66 0.34 3.32 0 4 C3.96 4 7.92 4 12 4 C12 4.33 12 4.66 12 5 C8.04 5 4.08 5 0 5 C0 5.99 0 6.98 0 8 C-0.66 8 -1.32 8 -2 8 C-2.125 5.125 -2.125 5.125 -2 2 C-1.34 1.34 -0.68 0.68 0 0 Z " fill="#6E706D" transform="translate(117,181)"/>
<path d="M0 0 C1.65 0 3.3 0 5 0 C5.33 1.32 5.66 2.64 6 4 C3.36 4 0.72 4 -2 4 C-1.34 2.68 -0.68 1.36 0 0 Z " fill="#f0f0f0" transform="translate(120,180)"/>
<path d="M0 0 C2.64 0 5.28 0 8 0 C7.67 0.99 7.34 1.98 7 3 C5.35 3 3.7 3 2 3 C2 3.66 2 4.32 2 5 C1.01 4.67 0.02 4.34 -1 4 C-0.67 2.68 -0.34 1.36 0 0 Z " fill="#838582" transform="translate(135,178)"/>
<path d="M0 0 C0.99 0.33 1.98 0.66 3 1 C2.34 2.65 1.68 4.3 1 6 C0.01 6 -0.98 6 -2 6 C-1.125 1.125 -1.125 1.125 0 0 Z " fill="#858784" transform="translate(103,195)"/>
<path d="M0 0 C-1.75 3.875 -1.75 3.875 -4 5 C-5.99960012 5.039992 -8.00047242 5.04346799 -10 5 C-10 4.67 -10 4.34 -10 4 C-8.35 3.67 -6.7 3.34 -5 3 C-5 2.34 -5 1.68 -5 1 C-3 0 -3 0 0 0 Z " fill="#878985" transform="translate(129,190)"/>
<path d="M0 0 C1.65 0 3.3 0 5 0 C3.1875 2 3.1875 2 1 4 C0.01 4 -0.98 4 -2 4 C-1.34 2.68 -0.68 1.36 0 0 Z " fill="#7E807D" transform="translate(84,178)"/>
</svg>
